<?xml version="1.0" encoding="utf-8" standalone="no"?>
<!DOCTYPE svg PUBLIC "-//W3C//DTD SVG 1.1//EN"
  "http://www.w3.org/Graphics/SVG/1.1/DTD/svg11.dtd">
<svg xmlns:xlink="http://www.w3.org/1999/xlink" width="792pt" height="288pt" viewBox="0 0 792 288" xmlns="http://www.w3.org/2000/svg" version="1.1">
 <metadata>
  <rdf:RDF xmlns:dc="http://purl.org/dc/elements/1.1/" xmlns:cc="http://creativecommons.org/ns#" xmlns:rdf="http://www.w3.org/1999/02/22-rdf-syntax-ns#">
   <cc:Work>
    <dc:type rdf:resource="http://purl.org/dc/dcmitype/StillImage"/>
    <dc:date>2022-05-24T14:15:02.238993</dc:date>
    <dc:format>image/svg+xml</dc:format>
    <dc:creator>
     <cc:Agent>
      <dc:title>Matplotlib v3.5.1, https://matplotlib.org/</dc:title>
     </cc:Agent>
    </dc:creator>
   </cc:Work>
  </rdf:RDF>
 </metadata>
 <defs>
  <style type="text/css">*{stroke-linejoin: round; stroke-linecap: butt}</style>
 </defs>
 <g id="figure_1">
  <g id="patch_1">
   <path d="M 0 288 
L 792 288 
L 792 0 
L 0 0 
z
" style="fill: #ffffff"/>
  </g>
  <g id="axes_1">
   <g id="patch_2">
    <path d="M 65.301125 228.573875 
L 775.152 228.573875 
L 775.152 34.926125 
L 65.301125 34.926125 
z
" style="fill: #ffffff"/>
   </g>
   <g id="matplotlib.axis_1">
    <g id="xtick_1">
     <g id="line2d_1">
      <path d="M 81.856166 228.573875 
L 81.856166 34.926125 
" clip-path="url(#p67331493f1)" style="fill: none; stroke: #cccccc; stroke-linecap: round"/>
     </g>
     <g id="text_1">
      <!-- 0 -->
      <g style="fill: #262626" transform="translate(77.880095 248.309547)scale(0.143 -0.143)">
       <defs>
        <path id="ArialMT-30" d="M 266 2259 
Q 266 3072 433 3567 
Q 600 4063 929 4331 
Q 1259 4600 1759 4600 
Q 2128 4600 2406 4451 
Q 2684 4303 2865 4023 
Q 3047 3744 3150 3342 
Q 3253 2941 3253 2259 
Q 3253 1453 3087 958 
Q 2922 463 2592 192 
Q 2263 -78 1759 -78 
Q 1097 -78 719 397 
Q 266 969 266 2259 
z
M 844 2259 
Q 844 1131 1108 757 
Q 1372 384 1759 384 
Q 2147 384 2411 759 
Q 2675 1134 2675 2259 
Q 2675 3391 2411 3762 
Q 2147 4134 1753 4134 
Q 1366 4134 1134 3806 
Q 844 3388 844 2259 
z
" transform="scale(0.015625)"/>
       </defs>
       <use xlink:href="#ArialMT-30"/>
      </g>
     </g>
    </g>
    <g id="xtick_2">
     <g id="line2d_2">
      <path d="M 199.37259 228.573875 
L 199.37259 34.926125 
" clip-path="url(#p67331493f1)" style="fill: none; stroke: #cccccc; stroke-linecap: round"/>
     </g>
     <g id="text_2">
      <!-- 10 -->
      <g style="fill: #262626" transform="translate(191.420449 248.309547)scale(0.143 -0.143)">
       <defs>
        <path id="ArialMT-31" d="M 2384 0 
L 1822 0 
L 1822 3584 
Q 1619 3391 1289 3197 
Q 959 3003 697 2906 
L 697 3450 
Q 1169 3672 1522 3987 
Q 1875 4303 2022 4600 
L 2384 4600 
L 2384 0 
z
" transform="scale(0.015625)"/>
       </defs>
       <use xlink:href="#ArialMT-31"/>
       <use xlink:href="#ArialMT-30" x="55.615234"/>
      </g>
     </g>
    </g>
    <g id="xtick_3">
     <g id="line2d_3">
      <path d="M 316.889014 228.573875 
L 316.889014 34.926125 
" clip-path="url(#p67331493f1)" style="fill: none; stroke: #cccccc; stroke-linecap: round"/>
     </g>
     <g id="text_3">
      <!-- 20 -->
      <g style="fill: #262626" transform="translate(308.936873 248.309547)scale(0.143 -0.143)">
       <defs>
        <path id="ArialMT-32" d="M 3222 541 
L 3222 0 
L 194 0 
Q 188 203 259 391 
Q 375 700 629 1000 
Q 884 1300 1366 1694 
Q 2113 2306 2375 2664 
Q 2638 3022 2638 3341 
Q 2638 3675 2398 3904 
Q 2159 4134 1775 4134 
Q 1369 4134 1125 3890 
Q 881 3647 878 3216 
L 300 3275 
Q 359 3922 746 4261 
Q 1134 4600 1788 4600 
Q 2447 4600 2831 4234 
Q 3216 3869 3216 3328 
Q 3216 3053 3103 2787 
Q 2991 2522 2730 2228 
Q 2469 1934 1863 1422 
Q 1356 997 1212 845 
Q 1069 694 975 541 
L 3222 541 
z
" transform="scale(0.015625)"/>
       </defs>
       <use xlink:href="#ArialMT-32"/>
       <use xlink:href="#ArialMT-30" x="55.615234"/>
      </g>
     </g>
    </g>
    <g id="xtick_4">
     <g id="line2d_4">
      <path d="M 434.405438 228.573875 
L 434.405438 34.926125 
" clip-path="url(#p67331493f1)" style="fill: none; stroke: #cccccc; stroke-linecap: round"/>
     </g>
     <g id="text_4">
      <!-- 30 -->
      <g style="fill: #262626" transform="translate(426.453297 248.309547)scale(0.143 -0.143)">
       <defs>
        <path id="ArialMT-33" d="M 269 1209 
L 831 1284 
Q 928 806 1161 595 
Q 1394 384 1728 384 
Q 2125 384 2398 659 
Q 2672 934 2672 1341 
Q 2672 1728 2419 1979 
Q 2166 2231 1775 2231 
Q 1616 2231 1378 2169 
L 1441 2663 
Q 1497 2656 1531 2656 
Q 1891 2656 2178 2843 
Q 2466 3031 2466 3422 
Q 2466 3731 2256 3934 
Q 2047 4138 1716 4138 
Q 1388 4138 1169 3931 
Q 950 3725 888 3313 
L 325 3413 
Q 428 3978 793 4289 
Q 1159 4600 1703 4600 
Q 2078 4600 2393 4439 
Q 2709 4278 2876 4000 
Q 3044 3722 3044 3409 
Q 3044 3113 2884 2869 
Q 2725 2625 2413 2481 
Q 2819 2388 3044 2092 
Q 3269 1797 3269 1353 
Q 3269 753 2831 336 
Q 2394 -81 1725 -81 
Q 1122 -81 723 278 
Q 325 638 269 1209 
z
" transform="scale(0.015625)"/>
       </defs>
       <use xlink:href="#ArialMT-33"/>
       <use xlink:href="#ArialMT-30" x="55.615234"/>
      </g>
     </g>
    </g>
    <g id="xtick_5">
     <g id="line2d_5">
      <path d="M 551.921862 228.573875 
L 551.921862 34.926125 
" clip-path="url(#p67331493f1)" style="fill: none; stroke: #cccccc; stroke-linecap: round"/>
     </g>
     <g id="text_5">
      <!-- 40 -->
      <g style="fill: #262626" transform="translate(543.969721 248.309547)scale(0.143 -0.143)">
       <defs>
        <path id="ArialMT-34" d="M 2069 0 
L 2069 1097 
L 81 1097 
L 81 1613 
L 2172 4581 
L 2631 4581 
L 2631 1613 
L 3250 1613 
L 3250 1097 
L 2631 1097 
L 2631 0 
L 2069 0 
z
M 2069 1613 
L 2069 3678 
L 634 1613 
L 2069 1613 
z
" transform="scale(0.015625)"/>
       </defs>
       <use xlink:href="#ArialMT-34"/>
       <use xlink:href="#ArialMT-30" x="55.615234"/>
      </g>
     </g>
    </g>
    <g id="xtick_6">
     <g id="line2d_6">
      <path d="M 669.438286 228.573875 
L 669.438286 34.926125 
" clip-path="url(#p67331493f1)" style="fill: none; stroke: #cccccc; stroke-linecap: round"/>
     </g>
     <g id="text_6">
      <!-- 50 -->
      <g style="fill: #262626" transform="translate(661.486145 248.309547)scale(0.143 -0.143)">
       <defs>
        <path id="ArialMT-35" d="M 266 1200 
L 856 1250 
Q 922 819 1161 601 
Q 1400 384 1738 384 
Q 2144 384 2425 690 
Q 2706 997 2706 1503 
Q 2706 1984 2436 2262 
Q 2166 2541 1728 2541 
Q 1456 2541 1237 2417 
Q 1019 2294 894 2097 
L 366 2166 
L 809 4519 
L 3088 4519 
L 3088 3981 
L 1259 3981 
L 1013 2750 
Q 1425 3038 1878 3038 
Q 2478 3038 2890 2622 
Q 3303 2206 3303 1553 
Q 3303 931 2941 478 
Q 2500 -78 1738 -78 
Q 1113 -78 717 272 
Q 322 622 266 1200 
z
" transform="scale(0.015625)"/>
       </defs>
       <use xlink:href="#ArialMT-35"/>
       <use xlink:href="#ArialMT-30" x="55.615234"/>
      </g>
     </g>
    </g>
    <g id="text_7">
     <!-- Agriculture as % of GDP -->
     <g style="fill: #262626" transform="translate(335.697719 266.507984)scale(0.156 -0.156)">
      <defs>
       <path id="ArialMT-41" d="M -9 0 
L 1750 4581 
L 2403 4581 
L 4278 0 
L 3588 0 
L 3053 1388 
L 1138 1388 
L 634 0 
L -9 0 
z
M 1313 1881 
L 2866 1881 
L 2388 3150 
Q 2169 3728 2063 4100 
Q 1975 3659 1816 3225 
L 1313 1881 
z
" transform="scale(0.015625)"/>
       <path id="ArialMT-67" d="M 319 -275 
L 866 -356 
Q 900 -609 1056 -725 
Q 1266 -881 1628 -881 
Q 2019 -881 2231 -725 
Q 2444 -569 2519 -288 
Q 2563 -116 2559 434 
Q 2191 0 1641 0 
Q 956 0 581 494 
Q 206 988 206 1678 
Q 206 2153 378 2554 
Q 550 2956 876 3175 
Q 1203 3394 1644 3394 
Q 2231 3394 2613 2919 
L 2613 3319 
L 3131 3319 
L 3131 450 
Q 3131 -325 2973 -648 
Q 2816 -972 2473 -1159 
Q 2131 -1347 1631 -1347 
Q 1038 -1347 672 -1080 
Q 306 -813 319 -275 
z
M 784 1719 
Q 784 1066 1043 766 
Q 1303 466 1694 466 
Q 2081 466 2343 764 
Q 2606 1063 2606 1700 
Q 2606 2309 2336 2618 
Q 2066 2928 1684 2928 
Q 1309 2928 1046 2623 
Q 784 2319 784 1719 
z
" transform="scale(0.015625)"/>
       <path id="ArialMT-72" d="M 416 0 
L 416 3319 
L 922 3319 
L 922 2816 
Q 1116 3169 1280 3281 
Q 1444 3394 1641 3394 
Q 1925 3394 2219 3213 
L 2025 2691 
Q 1819 2813 1613 2813 
Q 1428 2813 1281 2702 
Q 1134 2591 1072 2394 
Q 978 2094 978 1738 
L 978 0 
L 416 0 
z
" transform="scale(0.015625)"/>
       <path id="ArialMT-69" d="M 425 3934 
L 425 4581 
L 988 4581 
L 988 3934 
L 425 3934 
z
M 425 0 
L 425 3319 
L 988 3319 
L 988 0 
L 425 0 
z
" transform="scale(0.015625)"/>
       <path id="ArialMT-63" d="M 2588 1216 
L 3141 1144 
Q 3050 572 2676 248 
Q 2303 -75 1759 -75 
Q 1078 -75 664 370 
Q 250 816 250 1647 
Q 250 2184 428 2587 
Q 606 2991 970 3192 
Q 1334 3394 1763 3394 
Q 2303 3394 2647 3120 
Q 2991 2847 3088 2344 
L 2541 2259 
Q 2463 2594 2264 2762 
Q 2066 2931 1784 2931 
Q 1359 2931 1093 2626 
Q 828 2322 828 1663 
Q 828 994 1084 691 
Q 1341 388 1753 388 
Q 2084 388 2306 591 
Q 2528 794 2588 1216 
z
" transform="scale(0.015625)"/>
       <path id="ArialMT-75" d="M 2597 0 
L 2597 488 
Q 2209 -75 1544 -75 
Q 1250 -75 995 37 
Q 741 150 617 320 
Q 494 491 444 738 
Q 409 903 409 1263 
L 409 3319 
L 972 3319 
L 972 1478 
Q 972 1038 1006 884 
Q 1059 663 1231 536 
Q 1403 409 1656 409 
Q 1909 409 2131 539 
Q 2353 669 2445 892 
Q 2538 1116 2538 1541 
L 2538 3319 
L 3100 3319 
L 3100 0 
L 2597 0 
z
" transform="scale(0.015625)"/>
       <path id="ArialMT-6c" d="M 409 0 
L 409 4581 
L 972 4581 
L 972 0 
L 409 0 
z
" transform="scale(0.015625)"/>
       <path id="ArialMT-74" d="M 1650 503 
L 1731 6 
Q 1494 -44 1306 -44 
Q 1000 -44 831 53 
Q 663 150 594 308 
Q 525 466 525 972 
L 525 2881 
L 113 2881 
L 113 3319 
L 525 3319 
L 525 4141 
L 1084 4478 
L 1084 3319 
L 1650 3319 
L 1650 2881 
L 1084 2881 
L 1084 941 
Q 1084 700 1114 631 
Q 1144 563 1211 522 
Q 1278 481 1403 481 
Q 1497 481 1650 503 
z
" transform="scale(0.015625)"/>
       <path id="ArialMT-65" d="M 2694 1069 
L 3275 997 
Q 3138 488 2766 206 
Q 2394 -75 1816 -75 
Q 1088 -75 661 373 
Q 234 822 234 1631 
Q 234 2469 665 2931 
Q 1097 3394 1784 3394 
Q 2450 3394 2872 2941 
Q 3294 2488 3294 1666 
Q 3294 1616 3291 1516 
L 816 1516 
Q 847 969 1125 678 
Q 1403 388 1819 388 
Q 2128 388 2347 550 
Q 2566 713 2694 1069 
z
M 847 1978 
L 2700 1978 
Q 2663 2397 2488 2606 
Q 2219 2931 1791 2931 
Q 1403 2931 1139 2672 
Q 875 2413 847 1978 
z
" transform="scale(0.015625)"/>
       <path id="ArialMT-20" transform="scale(0.015625)"/>
       <path id="ArialMT-61" d="M 2588 409 
Q 2275 144 1986 34 
Q 1697 -75 1366 -75 
Q 819 -75 525 192 
Q 231 459 231 875 
Q 231 1119 342 1320 
Q 453 1522 633 1644 
Q 813 1766 1038 1828 
Q 1203 1872 1538 1913 
Q 2219 1994 2541 2106 
Q 2544 2222 2544 2253 
Q 2544 2597 2384 2738 
Q 2169 2928 1744 2928 
Q 1347 2928 1158 2789 
Q 969 2650 878 2297 
L 328 2372 
Q 403 2725 575 2942 
Q 747 3159 1072 3276 
Q 1397 3394 1825 3394 
Q 2250 3394 2515 3294 
Q 2781 3194 2906 3042 
Q 3031 2891 3081 2659 
Q 3109 2516 3109 2141 
L 3109 1391 
Q 3109 606 3145 398 
Q 3181 191 3288 0 
L 2700 0 
Q 2613 175 2588 409 
z
M 2541 1666 
Q 2234 1541 1622 1453 
Q 1275 1403 1131 1340 
Q 988 1278 909 1158 
Q 831 1038 831 891 
Q 831 666 1001 516 
Q 1172 366 1500 366 
Q 1825 366 2078 508 
Q 2331 650 2450 897 
Q 2541 1088 2541 1459 
L 2541 1666 
z
" transform="scale(0.015625)"/>
       <path id="ArialMT-73" d="M 197 991 
L 753 1078 
Q 800 744 1014 566 
Q 1228 388 1613 388 
Q 2000 388 2187 545 
Q 2375 703 2375 916 
Q 2375 1106 2209 1216 
Q 2094 1291 1634 1406 
Q 1016 1563 777 1677 
Q 538 1791 414 1992 
Q 291 2194 291 2438 
Q 291 2659 392 2848 
Q 494 3038 669 3163 
Q 800 3259 1026 3326 
Q 1253 3394 1513 3394 
Q 1903 3394 2198 3281 
Q 2494 3169 2634 2976 
Q 2775 2784 2828 2463 
L 2278 2388 
Q 2241 2644 2061 2787 
Q 1881 2931 1553 2931 
Q 1166 2931 1000 2803 
Q 834 2675 834 2503 
Q 834 2394 903 2306 
Q 972 2216 1119 2156 
Q 1203 2125 1616 2013 
Q 2213 1853 2448 1751 
Q 2684 1650 2818 1456 
Q 2953 1263 2953 975 
Q 2953 694 2789 445 
Q 2625 197 2315 61 
Q 2006 -75 1616 -75 
Q 969 -75 630 194 
Q 291 463 197 991 
z
" transform="scale(0.015625)"/>
       <path id="ArialMT-25" d="M 372 3481 
Q 372 3972 619 4315 
Q 866 4659 1334 4659 
Q 1766 4659 2048 4351 
Q 2331 4044 2331 3447 
Q 2331 2866 2045 2552 
Q 1759 2238 1341 2238 
Q 925 2238 648 2547 
Q 372 2856 372 3481 
z
M 1350 4272 
Q 1141 4272 1002 4090 
Q 863 3909 863 3425 
Q 863 2984 1003 2804 
Q 1144 2625 1350 2625 
Q 1563 2625 1702 2806 
Q 1841 2988 1841 3469 
Q 1841 3913 1700 4092 
Q 1559 4272 1350 4272 
z
M 1353 -169 
L 3859 4659 
L 4316 4659 
L 1819 -169 
L 1353 -169 
z
M 3334 1075 
Q 3334 1569 3581 1911 
Q 3828 2253 4300 2253 
Q 4731 2253 5014 1945 
Q 5297 1638 5297 1041 
Q 5297 459 5011 145 
Q 4725 -169 4303 -169 
Q 3888 -169 3611 142 
Q 3334 453 3334 1075 
z
M 4316 1866 
Q 4103 1866 3964 1684 
Q 3825 1503 3825 1019 
Q 3825 581 3965 400 
Q 4106 219 4313 219 
Q 4528 219 4667 400 
Q 4806 581 4806 1063 
Q 4806 1506 4665 1686 
Q 4525 1866 4316 1866 
z
" transform="scale(0.015625)"/>
       <path id="ArialMT-6f" d="M 213 1659 
Q 213 2581 725 3025 
Q 1153 3394 1769 3394 
Q 2453 3394 2887 2945 
Q 3322 2497 3322 1706 
Q 3322 1066 3130 698 
Q 2938 331 2570 128 
Q 2203 -75 1769 -75 
Q 1072 -75 642 372 
Q 213 819 213 1659 
z
M 791 1659 
Q 791 1022 1069 705 
Q 1347 388 1769 388 
Q 2188 388 2466 706 
Q 2744 1025 2744 1678 
Q 2744 2294 2464 2611 
Q 2184 2928 1769 2928 
Q 1347 2928 1069 2612 
Q 791 2297 791 1659 
z
" transform="scale(0.015625)"/>
       <path id="ArialMT-66" d="M 556 0 
L 556 2881 
L 59 2881 
L 59 3319 
L 556 3319 
L 556 3672 
Q 556 4006 616 4169 
Q 697 4388 901 4523 
Q 1106 4659 1475 4659 
Q 1713 4659 2000 4603 
L 1916 4113 
Q 1741 4144 1584 4144 
Q 1328 4144 1222 4034 
Q 1116 3925 1116 3625 
L 1116 3319 
L 1763 3319 
L 1763 2881 
L 1116 2881 
L 1116 0 
L 556 0 
z
" transform="scale(0.015625)"/>
       <path id="ArialMT-47" d="M 2638 1797 
L 2638 2334 
L 4578 2338 
L 4578 638 
Q 4131 281 3656 101 
Q 3181 -78 2681 -78 
Q 2006 -78 1454 211 
Q 903 500 622 1047 
Q 341 1594 341 2269 
Q 341 2938 620 3517 
Q 900 4097 1425 4378 
Q 1950 4659 2634 4659 
Q 3131 4659 3532 4498 
Q 3934 4338 4162 4050 
Q 4391 3763 4509 3300 
L 3963 3150 
Q 3859 3500 3706 3700 
Q 3553 3900 3268 4020 
Q 2984 4141 2638 4141 
Q 2222 4141 1919 4014 
Q 1616 3888 1430 3681 
Q 1244 3475 1141 3228 
Q 966 2803 966 2306 
Q 966 1694 1177 1281 
Q 1388 869 1791 669 
Q 2194 469 2647 469 
Q 3041 469 3416 620 
Q 3791 772 3984 944 
L 3984 1797 
L 2638 1797 
z
" transform="scale(0.015625)"/>
       <path id="ArialMT-44" d="M 494 0 
L 494 4581 
L 2072 4581 
Q 2606 4581 2888 4516 
Q 3281 4425 3559 4188 
Q 3922 3881 4101 3404 
Q 4281 2928 4281 2316 
Q 4281 1794 4159 1391 
Q 4038 988 3847 723 
Q 3656 459 3429 307 
Q 3203 156 2883 78 
Q 2563 0 2147 0 
L 494 0 
z
M 1100 541 
L 2078 541 
Q 2531 541 2789 625 
Q 3047 709 3200 863 
Q 3416 1078 3536 1442 
Q 3656 1806 3656 2325 
Q 3656 3044 3420 3430 
Q 3184 3816 2847 3947 
Q 2603 4041 2063 4041 
L 1100 4041 
L 1100 541 
z
" transform="scale(0.015625)"/>
       <path id="ArialMT-50" d="M 494 0 
L 494 4581 
L 2222 4581 
Q 2678 4581 2919 4538 
Q 3256 4481 3484 4323 
Q 3713 4166 3852 3881 
Q 3991 3597 3991 3256 
Q 3991 2672 3619 2267 
Q 3247 1863 2275 1863 
L 1100 1863 
L 1100 0 
L 494 0 
z
M 1100 2403 
L 2284 2403 
Q 2872 2403 3119 2622 
Q 3366 2841 3366 3238 
Q 3366 3525 3220 3729 
Q 3075 3934 2838 4000 
Q 2684 4041 2272 4041 
L 1100 4041 
L 1100 2403 
z
" transform="scale(0.015625)"/>
      </defs>
      <use xlink:href="#ArialMT-41"/>
      <use xlink:href="#ArialMT-67" x="66.699219"/>
      <use xlink:href="#ArialMT-72" x="122.314453"/>
      <use xlink:href="#ArialMT-69" x="155.615234"/>
      <use xlink:href="#ArialMT-63" x="177.832031"/>
      <use xlink:href="#ArialMT-75" x="227.832031"/>
      <use xlink:href="#ArialMT-6c" x="283.447266"/>
      <use xlink:href="#ArialMT-74" x="305.664062"/>
      <use xlink:href="#ArialMT-75" x="333.447266"/>
      <use xlink:href="#ArialMT-72" x="389.0625"/>
      <use xlink:href="#ArialMT-65" x="422.363281"/>
      <use xlink:href="#ArialMT-20" x="477.978516"/>
      <use xlink:href="#ArialMT-61" x="505.761719"/>
      <use xlink:href="#ArialMT-73" x="561.376953"/>
      <use xlink:href="#ArialMT-20" x="611.376953"/>
      <use xlink:href="#ArialMT-25" x="639.160156"/>
      <use xlink:href="#ArialMT-20" x="728.076172"/>
      <use xlink:href="#ArialMT-6f" x="755.859375"/>
      <use xlink:href="#ArialMT-66" x="811.474609"/>
      <use xlink:href="#ArialMT-20" x="839.257812"/>
      <use xlink:href="#ArialMT-47" x="867.041016"/>
      <use xlink:href="#ArialMT-44" x="944.824219"/>
      <use xlink:href="#ArialMT-50" x="1017.041016"/>
     </g>
    </g>
   </g>
   <g id="matplotlib.axis_2">
    <g id="ytick_1">
     <g id="line2d_7">
      <path d="M 65.301125 211.171948 
L 775.152 211.171948 
" clip-path="url(#p67331493f1)" style="fill: none; stroke: #cccccc; stroke-linecap: round"/>
     </g>
     <g id="text_8">
      <!-- 0.9 -->
      <g style="fill: #262626" transform="translate(35.924125 216.289784)scale(0.143 -0.143)">
       <defs>
        <path id="ArialMT-2e" d="M 581 0 
L 581 641 
L 1222 641 
L 1222 0 
L 581 0 
z
" transform="scale(0.015625)"/>
        <path id="ArialMT-39" d="M 350 1059 
L 891 1109 
Q 959 728 1153 556 
Q 1347 384 1650 384 
Q 1909 384 2104 503 
Q 2300 622 2425 820 
Q 2550 1019 2634 1356 
Q 2719 1694 2719 2044 
Q 2719 2081 2716 2156 
Q 2547 1888 2255 1720 
Q 1963 1553 1622 1553 
Q 1053 1553 659 1965 
Q 266 2378 266 3053 
Q 266 3750 677 4175 
Q 1088 4600 1706 4600 
Q 2153 4600 2523 4359 
Q 2894 4119 3086 3673 
Q 3278 3228 3278 2384 
Q 3278 1506 3087 986 
Q 2897 466 2520 194 
Q 2144 -78 1638 -78 
Q 1100 -78 759 220 
Q 419 519 350 1059 
z
M 2653 3081 
Q 2653 3566 2395 3850 
Q 2138 4134 1775 4134 
Q 1400 4134 1122 3828 
Q 844 3522 844 3034 
Q 844 2597 1108 2323 
Q 1372 2050 1759 2050 
Q 2150 2050 2401 2323 
Q 2653 2597 2653 3081 
z
" transform="scale(0.015625)"/>
       </defs>
       <use xlink:href="#ArialMT-30"/>
       <use xlink:href="#ArialMT-2e" x="55.615234"/>
       <use xlink:href="#ArialMT-39" x="83.398438"/>
      </g>
     </g>
    </g>
    <g id="ytick_2">
     <g id="line2d_8">
      <path d="M 65.301125 173.040322 
L 775.152 173.040322 
" clip-path="url(#p67331493f1)" style="fill: none; stroke: #cccccc; stroke-linecap: round"/>
     </g>
     <g id="text_9">
      <!-- 1.0 -->
      <g style="fill: #262626" transform="translate(35.924125 178.158158)scale(0.143 -0.143)">
       <use xlink:href="#ArialMT-31"/>
       <use xlink:href="#ArialMT-2e" x="55.615234"/>
       <use xlink:href="#ArialMT-30" x="83.398438"/>
      </g>
     </g>
    </g>
    <g id="ytick_3">
     <g id="line2d_9">
      <path d="M 65.301125 134.908696 
L 775.152 134.908696 
" clip-path="url(#p67331493f1)" style="fill: none; stroke: #cccccc; stroke-linecap: round"/>
     </g>
     <g id="text_10">
      <!-- 1.1 -->
      <g style="fill: #262626" transform="translate(35.924125 140.026532)scale(0.143 -0.143)">
       <use xlink:href="#ArialMT-31"/>
       <use xlink:href="#ArialMT-2e" x="55.615234"/>
       <use xlink:href="#ArialMT-31" x="83.398438"/>
      </g>
     </g>
    </g>
    <g id="ytick_4">
     <g id="line2d_10">
      <path d="M 65.301125 96.77707 
L 775.152 96.77707 
" clip-path="url(#p67331493f1)" style="fill: none; stroke: #cccccc; stroke-linecap: round"/>
     </g>
     <g id="text_11">
      <!-- 1.2 -->
      <g style="fill: #262626" transform="translate(35.924125 101.894906)scale(0.143 -0.143)">
       <use xlink:href="#ArialMT-31"/>
       <use xlink:href="#ArialMT-2e" x="55.615234"/>
       <use xlink:href="#ArialMT-32" x="83.398438"/>
      </g>
     </g>
    </g>
    <g id="ytick_5">
     <g id="line2d_11">
      <path d="M 65.301125 58.645444 
L 775.152 58.645444 
" clip-path="url(#p67331493f1)" style="fill: none; stroke: #cccccc; stroke-linecap: round"/>
     </g>
     <g id="text_12">
      <!-- 1.3 -->
      <g style="fill: #262626" transform="translate(35.924125 63.76328)scale(0.143 -0.143)">
       <use xlink:href="#ArialMT-31"/>
       <use xlink:href="#ArialMT-2e" x="55.615234"/>
       <use xlink:href="#ArialMT-33" x="83.398438"/>
      </g>
     </g>
    </g>
    <g id="text_13">
     <!-- TMD (Capital V1) -->
     <g style="fill: #262626" transform="translate(28.640812 191.991594)rotate(-90)scale(0.156 -0.156)">
      <defs>
       <path id="ArialMT-54" d="M 1659 0 
L 1659 4041 
L 150 4041 
L 150 4581 
L 3781 4581 
L 3781 4041 
L 2266 4041 
L 2266 0 
L 1659 0 
z
" transform="scale(0.015625)"/>
       <path id="ArialMT-4d" d="M 475 0 
L 475 4581 
L 1388 4581 
L 2472 1338 
Q 2622 884 2691 659 
Q 2769 909 2934 1394 
L 4031 4581 
L 4847 4581 
L 4847 0 
L 4263 0 
L 4263 3834 
L 2931 0 
L 2384 0 
L 1059 3900 
L 1059 0 
L 475 0 
z
" transform="scale(0.015625)"/>
       <path id="ArialMT-28" d="M 1497 -1347 
Q 1031 -759 709 28 
Q 388 816 388 1659 
Q 388 2403 628 3084 
Q 909 3875 1497 4659 
L 1900 4659 
Q 1522 4009 1400 3731 
Q 1209 3300 1100 2831 
Q 966 2247 966 1656 
Q 966 153 1900 -1347 
L 1497 -1347 
z
" transform="scale(0.015625)"/>
       <path id="ArialMT-43" d="M 3763 1606 
L 4369 1453 
Q 4178 706 3683 314 
Q 3188 -78 2472 -78 
Q 1731 -78 1267 223 
Q 803 525 561 1097 
Q 319 1669 319 2325 
Q 319 3041 592 3573 
Q 866 4106 1370 4382 
Q 1875 4659 2481 4659 
Q 3169 4659 3637 4309 
Q 4106 3959 4291 3325 
L 3694 3184 
Q 3534 3684 3231 3912 
Q 2928 4141 2469 4141 
Q 1941 4141 1586 3887 
Q 1231 3634 1087 3207 
Q 944 2781 944 2328 
Q 944 1744 1114 1308 
Q 1284 872 1643 656 
Q 2003 441 2422 441 
Q 2931 441 3284 734 
Q 3638 1028 3763 1606 
z
" transform="scale(0.015625)"/>
       <path id="ArialMT-70" d="M 422 -1272 
L 422 3319 
L 934 3319 
L 934 2888 
Q 1116 3141 1344 3267 
Q 1572 3394 1897 3394 
Q 2322 3394 2647 3175 
Q 2972 2956 3137 2557 
Q 3303 2159 3303 1684 
Q 3303 1175 3120 767 
Q 2938 359 2589 142 
Q 2241 -75 1856 -75 
Q 1575 -75 1351 44 
Q 1128 163 984 344 
L 984 -1272 
L 422 -1272 
z
M 931 1641 
Q 931 1000 1190 694 
Q 1450 388 1819 388 
Q 2194 388 2461 705 
Q 2728 1022 2728 1688 
Q 2728 2322 2467 2637 
Q 2206 2953 1844 2953 
Q 1484 2953 1207 2617 
Q 931 2281 931 1641 
z
" transform="scale(0.015625)"/>
       <path id="ArialMT-56" d="M 1803 0 
L 28 4581 
L 684 4581 
L 1875 1253 
Q 2019 853 2116 503 
Q 2222 878 2363 1253 
L 3600 4581 
L 4219 4581 
L 2425 0 
L 1803 0 
z
" transform="scale(0.015625)"/>
       <path id="ArialMT-29" d="M 791 -1347 
L 388 -1347 
Q 1322 153 1322 1656 
Q 1322 2244 1188 2822 
Q 1081 3291 891 3722 
Q 769 4003 388 4659 
L 791 4659 
Q 1378 3875 1659 3084 
Q 1900 2403 1900 1659 
Q 1900 816 1576 28 
Q 1253 -759 791 -1347 
z
" transform="scale(0.015625)"/>
      </defs>
      <use xlink:href="#ArialMT-54"/>
      <use xlink:href="#ArialMT-4d" x="61.083984"/>
      <use xlink:href="#ArialMT-44" x="144.384766"/>
      <use xlink:href="#ArialMT-20" x="216.601562"/>
      <use xlink:href="#ArialMT-28" x="244.384766"/>
      <use xlink:href="#ArialMT-43" x="277.685547"/>
      <use xlink:href="#ArialMT-61" x="349.902344"/>
      <use xlink:href="#ArialMT-70" x="405.517578"/>
      <use xlink:href="#ArialMT-69" x="461.132812"/>
      <use xlink:href="#ArialMT-74" x="483.349609"/>
      <use xlink:href="#ArialMT-61" x="511.132812"/>
      <use xlink:href="#ArialMT-6c" x="566.748047"/>
      <use xlink:href="#ArialMT-20" x="588.964844"/>
      <use xlink:href="#ArialMT-56" x="616.748047"/>
      <use xlink:href="#ArialMT-31" x="683.447266"/>
      <use xlink:href="#ArialMT-29" x="739.0625"/>
     </g>
    </g>
   </g>
   <g id="PathCollection_1">
    <defs>
     <path id="m8b04793239" d="M 0 3 
C 0.795609 3 1.55874 2.683901 2.12132 2.12132 
C 2.683901 1.55874 3 0.795609 3 0 
C 3 -0.795609 2.683901 -1.55874 2.12132 -2.12132 
C 1.55874 -2.683901 0.795609 -3 0 -3 
C -0.795609 -3 -1.55874 -2.683901 -2.12132 -2.12132 
C -2.683901 -1.55874 -3 -0.795609 -3 0 
C -3 0.795609 -2.683901 1.55874 -2.12132 2.12132 
C -1.55874 2.683901 -0.795609 3 0 3 
z
" style="stroke: #4c72b0; stroke-opacity: 0.8"/>
    </defs>
    <g clip-path="url(#p67331493f1)">
     <use xlink:href="#m8b04793239" x="168.534004" y="109.366121" style="fill: #4c72b0; fill-opacity: 0.8; stroke: #4c72b0; stroke-opacity: 0.8"/>
     <use xlink:href="#m8b04793239" x="97.567074" y="125.306557" style="fill: #4c72b0; fill-opacity: 0.8; stroke: #4c72b0; stroke-opacity: 0.8"/>
     <use xlink:href="#m8b04793239" x="742.886051" y="43.837107" style="fill: #4c72b0; fill-opacity: 0.8; stroke: #4c72b0; stroke-opacity: 0.8"/>
     <use xlink:href="#m8b04793239" x="265.206398" y="185.633236" style="fill: #4c72b0; fill-opacity: 0.8; stroke: #4c72b0; stroke-opacity: 0.8"/>
     <use xlink:href="#m8b04793239" x="553.93066" y="119.865415" style="fill: #4c72b0; fill-opacity: 0.8; stroke: #4c72b0; stroke-opacity: 0.8"/>
     <use xlink:href="#m8b04793239" x="354.203936" y="113.948753" style="fill: #4c72b0; fill-opacity: 0.8; stroke: #4c72b0; stroke-opacity: 0.8"/>
    </g>
   </g>
   <g id="PolyCollection_1">
    <defs>
     <path id="mf09e41d7d3" d="M 97.567074 -180.630409 
L 97.567074 -68.228295 
L 104.085447 -69.97256 
L 110.603821 -71.716824 
L 117.122194 -73.461088 
L 123.640568 -75.205353 
L 130.158941 -76.949617 
L 136.677315 -78.693881 
L 143.195688 -80.438145 
L 149.714062 -82.18241 
L 156.232435 -83.926674 
L 162.750809 -85.670938 
L 169.269182 -87.415202 
L 175.787556 -89.159467 
L 182.305929 -90.903731 
L 188.824303 -92.647995 
L 195.342676 -94.39226 
L 201.86105 -96.136524 
L 208.379423 -97.806821 
L 214.897797 -99.44126 
L 221.416171 -101.075699 
L 227.934544 -102.710139 
L 234.452918 -104.344578 
L 240.971291 -105.979017 
L 247.489665 -107.613456 
L 254.008038 -109.244499 
L 260.526412 -109.17921 
L 267.044785 -109.001545 
L 273.563159 -106.706547 
L 280.081532 -106.782352 
L 286.599906 -108.680355 
L 293.118279 -108.715689 
L 299.636653 -110.25988 
L 306.155026 -112.157281 
L 312.6734 -113.480582 
L 319.191773 -112.86422 
L 325.710147 -114.698358 
L 332.22852 -116.598584 
L 338.746894 -118.498811 
L 345.265267 -120.399037 
L 351.783641 -120.323241 
L 358.302014 -120.836583 
L 364.820388 -121.008339 
L 371.338761 -122.758289 
L 377.857135 -124.080721 
L 384.375508 -122.815571 
L 390.893882 -121.55042 
L 397.412255 -120.28527 
L 403.930629 -119.02012 
L 410.449002 -117.754969 
L 416.967376 -116.489819 
L 423.485749 -115.648621 
L 430.004123 -118.271361 
L 436.522496 -120.867675 
L 443.04087 -120.377771 
L 449.559243 -119.524301 
L 456.077617 -118.670831 
L 462.59599 -117.81736 
L 469.114364 -116.96389 
L 475.632737 -116.110419 
L 482.151111 -115.256949 
L 488.669484 -114.401262 
L 495.187858 -113.543046 
L 501.706231 -112.68483 
L 508.224605 -111.826614 
L 514.742978 -110.968398 
L 521.261352 -110.110181 
L 527.779725 -109.251965 
L 534.298099 -108.393749 
L 540.816472 -107.535533 
L 547.334846 -106.677317 
L 553.853219 -105.819101 
L 560.371593 -104.960885 
L 566.889966 -104.102668 
L 573.40834 -103.244452 
L 579.926713 -102.386236 
L 586.445087 -101.52802 
L 592.96346 -100.669804 
L 599.481834 -99.811588 
L 606.000207 -98.953372 
L 612.518581 -98.095156 
L 619.036954 -97.236939 
L 625.555328 -96.378723 
L 632.073702 -95.520507 
L 638.592075 -94.662291 
L 645.110449 -93.804075 
L 651.628822 -92.945859 
L 658.147196 -92.087643 
L 664.665569 -91.229426 
L 671.183943 -90.37121 
L 677.702316 -89.512994 
L 684.22069 -88.654778 
L 690.739063 -87.796562 
L 697.257437 -86.938346 
L 703.77581 -86.08013 
L 710.294184 -85.221914 
L 716.812557 -84.363697 
L 723.330931 -83.505481 
L 729.849304 -82.647265 
L 736.367678 -81.789049 
L 742.886051 -80.930833 
L 742.886051 -244.271705 
L 742.886051 -244.271705 
L 736.367678 -243.482329 
L 729.849304 -242.692031 
L 723.330931 -241.931809 
L 716.812557 -240.189938 
L 710.294184 -238.464398 
L 703.77581 -237.32188 
L 697.257437 -236.386639 
L 690.739063 -235.480814 
L 684.22069 -234.578759 
L 677.702316 -233.390484 
L 671.183943 -232.537345 
L 664.665569 -231.684206 
L 658.147196 -230.831067 
L 651.628822 -229.975233 
L 645.110449 -229.15562 
L 638.592075 -228.284749 
L 632.073702 -227.385605 
L 625.555328 -226.486461 
L 619.036954 -225.587316 
L 612.518581 -224.777194 
L 606.000207 -223.969786 
L 599.481834 -223.159629 
L 592.96346 -222.308783 
L 586.445087 -221.457938 
L 579.926713 -220.607092 
L 573.40834 -219.756247 
L 566.889966 -218.905401 
L 560.371593 -218.054556 
L 553.853219 -217.20371 
L 547.334846 -216.352865 
L 540.816472 -215.502019 
L 534.298099 -214.723845 
L 527.779725 -214.014597 
L 521.261352 -213.305348 
L 514.742978 -212.594969 
L 508.224605 -211.762215 
L 501.706231 -210.902445 
L 495.187858 -210.042676 
L 488.669484 -209.182906 
L 482.151111 -208.323136 
L 475.632737 -207.463367 
L 469.114364 -206.603597 
L 462.59599 -205.743827 
L 456.077617 -204.900269 
L 449.559243 -204.142718 
L 443.04087 -203.385168 
L 436.522496 -202.627617 
L 430.004123 -201.870067 
L 423.485749 -201.112516 
L 416.967376 -200.354966 
L 410.449002 -199.597416 
L 403.930629 -198.839865 
L 397.412255 -198.082315 
L 390.893882 -197.309581 
L 384.375508 -196.481067 
L 377.857135 -195.652553 
L 371.338761 -194.824039 
L 364.820388 -193.995525 
L 358.302014 -193.167011 
L 351.783641 -192.338497 
L 345.265267 -191.509983 
L 338.746894 -190.681469 
L 332.22852 -189.852955 
L 325.710147 -189.024441 
L 319.191773 -188.195927 
L 312.6734 -187.367413 
L 306.155026 -186.538899 
L 299.636653 -185.710385 
L 293.118279 -184.88749 
L 286.599906 -184.062194 
L 280.081532 -183.238952 
L 273.563159 -182.46703 
L 267.044785 -181.695108 
L 260.526412 -180.923186 
L 254.008038 -180.151264 
L 247.489665 -179.462416 
L 240.971291 -178.754966 
L 234.452918 -177.947559 
L 227.934544 -177.351665 
L 221.416171 -177.511447 
L 214.897797 -177.565104 
L 208.379423 -177.740124 
L 201.86105 -177.889179 
L 195.342676 -177.99054 
L 188.824303 -178.151421 
L 182.305929 -178.311147 
L 175.787556 -178.486588 
L 169.269182 -178.66203 
L 162.750809 -178.776988 
L 156.232435 -178.938289 
L 149.714062 -179.09959 
L 143.195688 -179.260891 
L 136.677315 -179.422193 
L 130.158941 -179.583494 
L 123.640568 -179.856903 
L 117.122194 -180.065564 
L 110.603821 -180.276161 
L 104.085447 -180.453285 
L 97.567074 -180.630409 
z
" style="stroke: #ffffff; stroke-opacity: 0.15"/>
    </defs>
    <g clip-path="url(#p67331493f1)">
     <use xlink:href="#mf09e41d7d3" x="0" y="288" style="fill: #4c72b0; fill-opacity: 0.15; stroke: #ffffff; stroke-opacity: 0.15"/>
    </g>
   </g>
   <g id="line2d_12">
    <path d="M 97.567074 147.202167 
L 104.085447 146.445985 
L 110.603821 145.689803 
L 117.122194 144.933621 
L 123.640568 144.177438 
L 130.158941 143.421256 
L 136.677315 142.665074 
L 143.195688 141.908892 
L 149.714062 141.15271 
L 156.232435 140.396528 
L 162.750809 139.640346 
L 169.269182 138.884164 
L 175.787556 138.127982 
L 182.305929 137.3718 
L 188.824303 136.615618 
L 195.342676 135.859436 
L 201.86105 135.103254 
L 208.379423 134.347072 
L 214.897797 133.590889 
L 221.416171 132.834707 
L 227.934544 132.078525 
L 234.452918 131.322343 
L 240.971291 130.566161 
L 247.489665 129.809979 
L 254.008038 129.053797 
L 260.526412 128.297615 
L 267.044785 127.541433 
L 273.563159 126.785251 
L 280.081532 126.029069 
L 286.599906 125.272887 
L 293.118279 124.516705 
L 299.636653 123.760522 
L 306.155026 123.00434 
L 312.6734 122.248158 
L 319.191773 121.491976 
L 325.710147 120.735794 
L 332.22852 119.979612 
L 338.746894 119.22343 
L 345.265267 118.467248 
L 351.783641 117.711066 
L 358.302014 116.954884 
L 364.820388 116.198702 
L 371.338761 115.44252 
L 377.857135 114.686338 
L 384.375508 113.930155 
L 390.893882 113.173973 
L 397.412255 112.417791 
L 403.930629 111.661609 
L 410.449002 110.905427 
L 416.967376 110.149245 
L 423.485749 109.393063 
L 430.004123 108.636881 
L 436.522496 107.880699 
L 443.04087 107.124517 
L 449.559243 106.368335 
L 456.077617 105.612153 
L 462.59599 104.855971 
L 469.114364 104.099789 
L 475.632737 103.343606 
L 482.151111 102.587424 
L 488.669484 101.831242 
L 495.187858 101.07506 
L 501.706231 100.318878 
L 508.224605 99.562696 
L 514.742978 98.806514 
L 521.261352 98.050332 
L 527.779725 97.29415 
L 534.298099 96.537968 
L 540.816472 95.781786 
L 547.334846 95.025604 
L 553.853219 94.269422 
L 560.371593 93.513239 
L 566.889966 92.757057 
L 573.40834 92.000875 
L 579.926713 91.244693 
L 586.445087 90.488511 
L 592.96346 89.732329 
L 599.481834 88.976147 
L 606.000207 88.219965 
L 612.518581 87.463783 
L 619.036954 86.707601 
L 625.555328 85.951419 
L 632.073702 85.195237 
L 638.592075 84.439055 
L 645.110449 83.682872 
L 651.628822 82.92669 
L 658.147196 82.170508 
L 664.665569 81.414326 
L 671.183943 80.658144 
L 677.702316 79.901962 
L 684.22069 79.14578 
L 690.739063 78.389598 
L 697.257437 77.633416 
L 703.77581 76.877234 
L 710.294184 76.121052 
L 716.812557 75.36487 
L 723.330931 74.608688 
L 729.849304 73.852506 
L 736.367678 73.096323 
L 742.886051 72.340141 
" clip-path="url(#p67331493f1)" style="fill: none; stroke: #4c72b0; stroke-width: 2.25; stroke-linecap: round"/>
   </g>
   <g id="patch_3">
    <path d="M 65.301125 228.573875 
L 65.301125 34.926125 
" style="fill: none; stroke: #cccccc; stroke-width: 1.25; stroke-linejoin: miter; stroke-linecap: square"/>
   </g>
   <g id="patch_4">
    <path d="M 775.152 228.573875 
L 775.152 34.926125 
" style="fill: none; stroke: #cccccc; stroke-width: 1.25; stroke-linejoin: miter; stroke-linecap: square"/>
   </g>
   <g id="patch_5">
    <path d="M 65.301125 228.573875 
L 775.152 228.573875 
" style="fill: none; stroke: #cccccc; stroke-width: 1.25; stroke-linejoin: miter; stroke-linecap: square"/>
   </g>
   <g id="patch_6">
    <path d="M 65.301125 34.926125 
L 775.152 34.926125 
" style="fill: none; stroke: #cccccc; stroke-width: 1.25; stroke-linejoin: miter; stroke-linecap: square"/>
   </g>
   <g id="text_14">
    <g id="text_15">
     <g id="text_16">
      <g id="text_17">
       <!-- el -->
       <g style="fill: #262626" transform="translate(168.769037 109.366121)scale(0.156 -0.156)">
        <use xlink:href="#ArialMT-65"/>
        <use xlink:href="#ArialMT-6c" x="55.615234"/>
       </g>
      </g>
      <g id="text_18">
       <!-- en -->
       <g style="fill: #262626" transform="translate(97.802107 125.306557)scale(0.156 -0.156)">
        <defs>
         <path id="ArialMT-6e" d="M 422 0 
L 422 3319 
L 928 3319 
L 928 2847 
Q 1294 3394 1984 3394 
Q 2284 3394 2536 3286 
Q 2788 3178 2913 3003 
Q 3038 2828 3088 2588 
Q 3119 2431 3119 2041 
L 3119 0 
L 2556 0 
L 2556 2019 
Q 2556 2363 2490 2533 
Q 2425 2703 2258 2804 
Q 2091 2906 1866 2906 
Q 1506 2906 1245 2678 
Q 984 2450 984 1813 
L 984 0 
L 422 0 
z
" transform="scale(0.015625)"/>
        </defs>
        <use xlink:href="#ArialMT-65"/>
        <use xlink:href="#ArialMT-6e" x="55.615234"/>
       </g>
      </g>
      <g id="text_19">
       <g id="text_20">
        <g id="text_21">
         <g id="text_22">
          <g id="text_23">
           <g id="text_24">
            <!-- kk -->
            <g style="fill: #262626" transform="translate(743.121084 43.837107)scale(0.156 -0.156)">
             <defs>
              <path id="ArialMT-6b" d="M 425 0 
L 425 4581 
L 988 4581 
L 988 1969 
L 2319 3319 
L 3047 3319 
L 1778 2088 
L 3175 0 
L 2481 0 
L 1384 1697 
L 988 1316 
L 988 0 
L 425 0 
z
" transform="scale(0.015625)"/>
             </defs>
             <use xlink:href="#ArialMT-6b"/>
             <use xlink:href="#ArialMT-6b" x="50"/>
            </g>
           </g>
           <g id="text_25">
            <g id="text_26">
             <!-- ru -->
             <g style="fill: #262626" transform="translate(265.441431 185.633236)scale(0.156 -0.156)">
              <use xlink:href="#ArialMT-72"/>
              <use xlink:href="#ArialMT-75" x="33.300781"/>
             </g>
            </g>
            <g id="text_27">
             <!-- vi -->
             <g style="fill: #262626" transform="translate(554.165693 119.865415)scale(0.156 -0.156)">
              <defs>
               <path id="ArialMT-76" d="M 1344 0 
L 81 3319 
L 675 3319 
L 1388 1331 
Q 1503 1009 1600 663 
Q 1675 925 1809 1294 
L 2547 3319 
L 3125 3319 
L 1869 0 
L 1344 0 
z
" transform="scale(0.015625)"/>
              </defs>
              <use xlink:href="#ArialMT-76"/>
              <use xlink:href="#ArialMT-69" x="50"/>
             </g>
            </g>
            <g id="text_28">
             <!-- zh -->
             <g style="fill: #262626" transform="translate(354.438969 113.948753)scale(0.156 -0.156)">
              <defs>
               <path id="ArialMT-7a" d="M 125 0 
L 125 456 
L 2238 2881 
Q 1878 2863 1603 2863 
L 250 2863 
L 250 3319 
L 2963 3319 
L 2963 2947 
L 1166 841 
L 819 456 
Q 1197 484 1528 484 
L 3063 484 
L 3063 0 
L 125 0 
z
" transform="scale(0.015625)"/>
               <path id="ArialMT-68" d="M 422 0 
L 422 4581 
L 984 4581 
L 984 2938 
Q 1378 3394 1978 3394 
Q 2347 3394 2619 3248 
Q 2891 3103 3008 2847 
Q 3125 2591 3125 2103 
L 3125 0 
L 2563 0 
L 2563 2103 
Q 2563 2525 2380 2717 
Q 2197 2909 1863 2909 
Q 1613 2909 1392 2779 
Q 1172 2650 1078 2428 
Q 984 2206 984 1816 
L 984 0 
L 422 0 
z
" transform="scale(0.015625)"/>
              </defs>
              <use xlink:href="#ArialMT-7a"/>
              <use xlink:href="#ArialMT-68" x="50"/>
             </g>
            </g>
            <g id="text_29">
             <!-- Translations of Capital V1 -->
             <g style="fill: #262626" transform="translate(331.212719 28.926125)scale(0.156 -0.156)">
              <use xlink:href="#ArialMT-54"/>
              <use xlink:href="#ArialMT-72" x="57.333984"/>
              <use xlink:href="#ArialMT-61" x="90.634766"/>
              <use xlink:href="#ArialMT-6e" x="146.25"/>
              <use xlink:href="#ArialMT-73" x="201.865234"/>
              <use xlink:href="#ArialMT-6c" x="251.865234"/>
              <use xlink:href="#ArialMT-61" x="274.082031"/>
              <use xlink:href="#ArialMT-74" x="329.697266"/>
              <use xlink:href="#ArialMT-69" x="357.480469"/>
              <use xlink:href="#ArialMT-6f" x="379.697266"/>
              <use xlink:href="#ArialMT-6e" x="435.3125"/>
              <use xlink:href="#ArialMT-73" x="490.927734"/>
              <use xlink:href="#ArialMT-20" x="540.927734"/>
              <use xlink:href="#ArialMT-6f" x="568.710938"/>
              <use xlink:href="#ArialMT-66" x="624.326172"/>
              <use xlink:href="#ArialMT-20" x="652.109375"/>
              <use xlink:href="#ArialMT-43" x="679.892578"/>
              <use xlink:href="#ArialMT-61" x="752.109375"/>
              <use xlink:href="#ArialMT-70" x="807.724609"/>
              <use xlink:href="#ArialMT-69" x="863.339844"/>
              <use xlink:href="#ArialMT-74" x="885.556641"/>
              <use xlink:href="#ArialMT-61" x="913.339844"/>
              <use xlink:href="#ArialMT-6c" x="968.955078"/>
              <use xlink:href="#ArialMT-20" x="991.171875"/>
              <use xlink:href="#ArialMT-56" x="1018.955078"/>
              <use xlink:href="#ArialMT-31" x="1085.654297"/>
             </g>
            </g>
           </g>
          </g>
          <defs>
           <clipPath id="p67331493f1">
            <rect x="65.301125" y="34.926125" width="709.850875" height="193.64775"/>
           </clipPath>
          </defs>
         </g>
        </g>
       </g>
      </g>
     </g>
    </g>
   </g>
  </g>
 </g>
</svg>
