<?xml version="1.0" encoding="utf-8" standalone="no"?>
<!DOCTYPE svg PUBLIC "-//W3C//DTD SVG 1.1//EN"
  "http://www.w3.org/Graphics/SVG/1.1/DTD/svg11.dtd">
<svg xmlns:xlink="http://www.w3.org/1999/xlink" width="792pt" height="288pt" viewBox="0 0 792 288" xmlns="http://www.w3.org/2000/svg" version="1.1">
 <metadata>
  <rdf:RDF xmlns:dc="http://purl.org/dc/elements/1.1/" xmlns:cc="http://creativecommons.org/ns#" xmlns:rdf="http://www.w3.org/1999/02/22-rdf-syntax-ns#">
   <cc:Work>
    <dc:type rdf:resource="http://purl.org/dc/dcmitype/StillImage"/>
    <dc:date>2022-05-24T14:15:06.137243</dc:date>
    <dc:format>image/svg+xml</dc:format>
    <dc:creator>
     <cc:Agent>
      <dc:title>Matplotlib v3.5.1, https://matplotlib.org/</dc:title>
     </cc:Agent>
    </dc:creator>
   </cc:Work>
  </rdf:RDF>
 </metadata>
 <defs>
  <style type="text/css">*{stroke-linejoin: round; stroke-linecap: butt}</style>
 </defs>
 <g id="figure_1">
  <g id="patch_1">
   <path d="M 0 288 
L 792 288 
L 792 0 
L 0 0 
z
" style="fill: #ffffff"/>
  </g>
  <g id="axes_1">
   <g id="patch_2">
    <path d="M 65.223 228.573875 
L 775.152 228.573875 
L 775.152 34.926125 
L 65.223 34.926125 
z
" style="fill: #ffffff"/>
   </g>
   <g id="matplotlib.axis_1">
    <g id="xtick_1">
     <g id="line2d_1">
      <path d="M 81.779863 228.573875 
L 81.779863 34.926125 
" clip-path="url(#p01a558b76b)" style="fill: none; stroke: #cccccc; stroke-linecap: round"/>
     </g>
     <g id="text_1">
      <!-- 0 -->
      <g style="fill: #262626" transform="translate(77.803792 248.309547)scale(0.143 -0.143)">
       <defs>
        <path id="ArialMT-30" d="M 266 2259 
Q 266 3072 433 3567 
Q 600 4063 929 4331 
Q 1259 4600 1759 4600 
Q 2128 4600 2406 4451 
Q 2684 4303 2865 4023 
Q 3047 3744 3150 3342 
Q 3253 2941 3253 2259 
Q 3253 1453 3087 958 
Q 2922 463 2592 192 
Q 2263 -78 1759 -78 
Q 1097 -78 719 397 
Q 266 969 266 2259 
z
M 844 2259 
Q 844 1131 1108 757 
Q 1372 384 1759 384 
Q 2147 384 2411 759 
Q 2675 1134 2675 2259 
Q 2675 3391 2411 3762 
Q 2147 4134 1753 4134 
Q 1366 4134 1134 3806 
Q 844 3388 844 2259 
z
" transform="scale(0.015625)"/>
       </defs>
       <use xlink:href="#ArialMT-30"/>
      </g>
     </g>
    </g>
    <g id="xtick_2">
     <g id="line2d_2">
      <path d="M 199.30922 228.573875 
L 199.30922 34.926125 
" clip-path="url(#p01a558b76b)" style="fill: none; stroke: #cccccc; stroke-linecap: round"/>
     </g>
     <g id="text_2">
      <!-- 10 -->
      <g style="fill: #262626" transform="translate(191.35708 248.309547)scale(0.143 -0.143)">
       <defs>
        <path id="ArialMT-31" d="M 2384 0 
L 1822 0 
L 1822 3584 
Q 1619 3391 1289 3197 
Q 959 3003 697 2906 
L 697 3450 
Q 1169 3672 1522 3987 
Q 1875 4303 2022 4600 
L 2384 4600 
L 2384 0 
z
" transform="scale(0.015625)"/>
       </defs>
       <use xlink:href="#ArialMT-31"/>
       <use xlink:href="#ArialMT-30" x="55.615234"/>
      </g>
     </g>
    </g>
    <g id="xtick_3">
     <g id="line2d_3">
      <path d="M 316.838578 228.573875 
L 316.838578 34.926125 
" clip-path="url(#p01a558b76b)" style="fill: none; stroke: #cccccc; stroke-linecap: round"/>
     </g>
     <g id="text_3">
      <!-- 20 -->
      <g style="fill: #262626" transform="translate(308.886437 248.309547)scale(0.143 -0.143)">
       <defs>
        <path id="ArialMT-32" d="M 3222 541 
L 3222 0 
L 194 0 
Q 188 203 259 391 
Q 375 700 629 1000 
Q 884 1300 1366 1694 
Q 2113 2306 2375 2664 
Q 2638 3022 2638 3341 
Q 2638 3675 2398 3904 
Q 2159 4134 1775 4134 
Q 1369 4134 1125 3890 
Q 881 3647 878 3216 
L 300 3275 
Q 359 3922 746 4261 
Q 1134 4600 1788 4600 
Q 2447 4600 2831 4234 
Q 3216 3869 3216 3328 
Q 3216 3053 3103 2787 
Q 2991 2522 2730 2228 
Q 2469 1934 1863 1422 
Q 1356 997 1212 845 
Q 1069 694 975 541 
L 3222 541 
z
" transform="scale(0.015625)"/>
       </defs>
       <use xlink:href="#ArialMT-32"/>
       <use xlink:href="#ArialMT-30" x="55.615234"/>
      </g>
     </g>
    </g>
    <g id="xtick_4">
     <g id="line2d_4">
      <path d="M 434.367936 228.573875 
L 434.367936 34.926125 
" clip-path="url(#p01a558b76b)" style="fill: none; stroke: #cccccc; stroke-linecap: round"/>
     </g>
     <g id="text_4">
      <!-- 30 -->
      <g style="fill: #262626" transform="translate(426.415795 248.309547)scale(0.143 -0.143)">
       <defs>
        <path id="ArialMT-33" d="M 269 1209 
L 831 1284 
Q 928 806 1161 595 
Q 1394 384 1728 384 
Q 2125 384 2398 659 
Q 2672 934 2672 1341 
Q 2672 1728 2419 1979 
Q 2166 2231 1775 2231 
Q 1616 2231 1378 2169 
L 1441 2663 
Q 1497 2656 1531 2656 
Q 1891 2656 2178 2843 
Q 2466 3031 2466 3422 
Q 2466 3731 2256 3934 
Q 2047 4138 1716 4138 
Q 1388 4138 1169 3931 
Q 950 3725 888 3313 
L 325 3413 
Q 428 3978 793 4289 
Q 1159 4600 1703 4600 
Q 2078 4600 2393 4439 
Q 2709 4278 2876 4000 
Q 3044 3722 3044 3409 
Q 3044 3113 2884 2869 
Q 2725 2625 2413 2481 
Q 2819 2388 3044 2092 
Q 3269 1797 3269 1353 
Q 3269 753 2831 336 
Q 2394 -81 1725 -81 
Q 1122 -81 723 278 
Q 325 638 269 1209 
z
" transform="scale(0.015625)"/>
       </defs>
       <use xlink:href="#ArialMT-33"/>
       <use xlink:href="#ArialMT-30" x="55.615234"/>
      </g>
     </g>
    </g>
    <g id="xtick_5">
     <g id="line2d_5">
      <path d="M 551.897294 228.573875 
L 551.897294 34.926125 
" clip-path="url(#p01a558b76b)" style="fill: none; stroke: #cccccc; stroke-linecap: round"/>
     </g>
     <g id="text_5">
      <!-- 40 -->
      <g style="fill: #262626" transform="translate(543.945153 248.309547)scale(0.143 -0.143)">
       <defs>
        <path id="ArialMT-34" d="M 2069 0 
L 2069 1097 
L 81 1097 
L 81 1613 
L 2172 4581 
L 2631 4581 
L 2631 1613 
L 3250 1613 
L 3250 1097 
L 2631 1097 
L 2631 0 
L 2069 0 
z
M 2069 1613 
L 2069 3678 
L 634 1613 
L 2069 1613 
z
" transform="scale(0.015625)"/>
       </defs>
       <use xlink:href="#ArialMT-34"/>
       <use xlink:href="#ArialMT-30" x="55.615234"/>
      </g>
     </g>
    </g>
    <g id="xtick_6">
     <g id="line2d_6">
      <path d="M 669.426651 228.573875 
L 669.426651 34.926125 
" clip-path="url(#p01a558b76b)" style="fill: none; stroke: #cccccc; stroke-linecap: round"/>
     </g>
     <g id="text_6">
      <!-- 50 -->
      <g style="fill: #262626" transform="translate(661.474511 248.309547)scale(0.143 -0.143)">
       <defs>
        <path id="ArialMT-35" d="M 266 1200 
L 856 1250 
Q 922 819 1161 601 
Q 1400 384 1738 384 
Q 2144 384 2425 690 
Q 2706 997 2706 1503 
Q 2706 1984 2436 2262 
Q 2166 2541 1728 2541 
Q 1456 2541 1237 2417 
Q 1019 2294 894 2097 
L 366 2166 
L 809 4519 
L 3088 4519 
L 3088 3981 
L 1259 3981 
L 1013 2750 
Q 1425 3038 1878 3038 
Q 2478 3038 2890 2622 
Q 3303 2206 3303 1553 
Q 3303 931 2941 478 
Q 2500 -78 1738 -78 
Q 1113 -78 717 272 
Q 322 622 266 1200 
z
" transform="scale(0.015625)"/>
       </defs>
       <use xlink:href="#ArialMT-35"/>
       <use xlink:href="#ArialMT-30" x="55.615234"/>
      </g>
     </g>
    </g>
    <g id="text_7">
     <!-- Agriculture as % of GDP -->
     <g style="fill: #262626" transform="translate(335.658656 266.507984)scale(0.156 -0.156)">
      <defs>
       <path id="ArialMT-41" d="M -9 0 
L 1750 4581 
L 2403 4581 
L 4278 0 
L 3588 0 
L 3053 1388 
L 1138 1388 
L 634 0 
L -9 0 
z
M 1313 1881 
L 2866 1881 
L 2388 3150 
Q 2169 3728 2063 4100 
Q 1975 3659 1816 3225 
L 1313 1881 
z
" transform="scale(0.015625)"/>
       <path id="ArialMT-67" d="M 319 -275 
L 866 -356 
Q 900 -609 1056 -725 
Q 1266 -881 1628 -881 
Q 2019 -881 2231 -725 
Q 2444 -569 2519 -288 
Q 2563 -116 2559 434 
Q 2191 0 1641 0 
Q 956 0 581 494 
Q 206 988 206 1678 
Q 206 2153 378 2554 
Q 550 2956 876 3175 
Q 1203 3394 1644 3394 
Q 2231 3394 2613 2919 
L 2613 3319 
L 3131 3319 
L 3131 450 
Q 3131 -325 2973 -648 
Q 2816 -972 2473 -1159 
Q 2131 -1347 1631 -1347 
Q 1038 -1347 672 -1080 
Q 306 -813 319 -275 
z
M 784 1719 
Q 784 1066 1043 766 
Q 1303 466 1694 466 
Q 2081 466 2343 764 
Q 2606 1063 2606 1700 
Q 2606 2309 2336 2618 
Q 2066 2928 1684 2928 
Q 1309 2928 1046 2623 
Q 784 2319 784 1719 
z
" transform="scale(0.015625)"/>
       <path id="ArialMT-72" d="M 416 0 
L 416 3319 
L 922 3319 
L 922 2816 
Q 1116 3169 1280 3281 
Q 1444 3394 1641 3394 
Q 1925 3394 2219 3213 
L 2025 2691 
Q 1819 2813 1613 2813 
Q 1428 2813 1281 2702 
Q 1134 2591 1072 2394 
Q 978 2094 978 1738 
L 978 0 
L 416 0 
z
" transform="scale(0.015625)"/>
       <path id="ArialMT-69" d="M 425 3934 
L 425 4581 
L 988 4581 
L 988 3934 
L 425 3934 
z
M 425 0 
L 425 3319 
L 988 3319 
L 988 0 
L 425 0 
z
" transform="scale(0.015625)"/>
       <path id="ArialMT-63" d="M 2588 1216 
L 3141 1144 
Q 3050 572 2676 248 
Q 2303 -75 1759 -75 
Q 1078 -75 664 370 
Q 250 816 250 1647 
Q 250 2184 428 2587 
Q 606 2991 970 3192 
Q 1334 3394 1763 3394 
Q 2303 3394 2647 3120 
Q 2991 2847 3088 2344 
L 2541 2259 
Q 2463 2594 2264 2762 
Q 2066 2931 1784 2931 
Q 1359 2931 1093 2626 
Q 828 2322 828 1663 
Q 828 994 1084 691 
Q 1341 388 1753 388 
Q 2084 388 2306 591 
Q 2528 794 2588 1216 
z
" transform="scale(0.015625)"/>
       <path id="ArialMT-75" d="M 2597 0 
L 2597 488 
Q 2209 -75 1544 -75 
Q 1250 -75 995 37 
Q 741 150 617 320 
Q 494 491 444 738 
Q 409 903 409 1263 
L 409 3319 
L 972 3319 
L 972 1478 
Q 972 1038 1006 884 
Q 1059 663 1231 536 
Q 1403 409 1656 409 
Q 1909 409 2131 539 
Q 2353 669 2445 892 
Q 2538 1116 2538 1541 
L 2538 3319 
L 3100 3319 
L 3100 0 
L 2597 0 
z
" transform="scale(0.015625)"/>
       <path id="ArialMT-6c" d="M 409 0 
L 409 4581 
L 972 4581 
L 972 0 
L 409 0 
z
" transform="scale(0.015625)"/>
       <path id="ArialMT-74" d="M 1650 503 
L 1731 6 
Q 1494 -44 1306 -44 
Q 1000 -44 831 53 
Q 663 150 594 308 
Q 525 466 525 972 
L 525 2881 
L 113 2881 
L 113 3319 
L 525 3319 
L 525 4141 
L 1084 4478 
L 1084 3319 
L 1650 3319 
L 1650 2881 
L 1084 2881 
L 1084 941 
Q 1084 700 1114 631 
Q 1144 563 1211 522 
Q 1278 481 1403 481 
Q 1497 481 1650 503 
z
" transform="scale(0.015625)"/>
       <path id="ArialMT-65" d="M 2694 1069 
L 3275 997 
Q 3138 488 2766 206 
Q 2394 -75 1816 -75 
Q 1088 -75 661 373 
Q 234 822 234 1631 
Q 234 2469 665 2931 
Q 1097 3394 1784 3394 
Q 2450 3394 2872 2941 
Q 3294 2488 3294 1666 
Q 3294 1616 3291 1516 
L 816 1516 
Q 847 969 1125 678 
Q 1403 388 1819 388 
Q 2128 388 2347 550 
Q 2566 713 2694 1069 
z
M 847 1978 
L 2700 1978 
Q 2663 2397 2488 2606 
Q 2219 2931 1791 2931 
Q 1403 2931 1139 2672 
Q 875 2413 847 1978 
z
" transform="scale(0.015625)"/>
       <path id="ArialMT-20" transform="scale(0.015625)"/>
       <path id="ArialMT-61" d="M 2588 409 
Q 2275 144 1986 34 
Q 1697 -75 1366 -75 
Q 819 -75 525 192 
Q 231 459 231 875 
Q 231 1119 342 1320 
Q 453 1522 633 1644 
Q 813 1766 1038 1828 
Q 1203 1872 1538 1913 
Q 2219 1994 2541 2106 
Q 2544 2222 2544 2253 
Q 2544 2597 2384 2738 
Q 2169 2928 1744 2928 
Q 1347 2928 1158 2789 
Q 969 2650 878 2297 
L 328 2372 
Q 403 2725 575 2942 
Q 747 3159 1072 3276 
Q 1397 3394 1825 3394 
Q 2250 3394 2515 3294 
Q 2781 3194 2906 3042 
Q 3031 2891 3081 2659 
Q 3109 2516 3109 2141 
L 3109 1391 
Q 3109 606 3145 398 
Q 3181 191 3288 0 
L 2700 0 
Q 2613 175 2588 409 
z
M 2541 1666 
Q 2234 1541 1622 1453 
Q 1275 1403 1131 1340 
Q 988 1278 909 1158 
Q 831 1038 831 891 
Q 831 666 1001 516 
Q 1172 366 1500 366 
Q 1825 366 2078 508 
Q 2331 650 2450 897 
Q 2541 1088 2541 1459 
L 2541 1666 
z
" transform="scale(0.015625)"/>
       <path id="ArialMT-73" d="M 197 991 
L 753 1078 
Q 800 744 1014 566 
Q 1228 388 1613 388 
Q 2000 388 2187 545 
Q 2375 703 2375 916 
Q 2375 1106 2209 1216 
Q 2094 1291 1634 1406 
Q 1016 1563 777 1677 
Q 538 1791 414 1992 
Q 291 2194 291 2438 
Q 291 2659 392 2848 
Q 494 3038 669 3163 
Q 800 3259 1026 3326 
Q 1253 3394 1513 3394 
Q 1903 3394 2198 3281 
Q 2494 3169 2634 2976 
Q 2775 2784 2828 2463 
L 2278 2388 
Q 2241 2644 2061 2787 
Q 1881 2931 1553 2931 
Q 1166 2931 1000 2803 
Q 834 2675 834 2503 
Q 834 2394 903 2306 
Q 972 2216 1119 2156 
Q 1203 2125 1616 2013 
Q 2213 1853 2448 1751 
Q 2684 1650 2818 1456 
Q 2953 1263 2953 975 
Q 2953 694 2789 445 
Q 2625 197 2315 61 
Q 2006 -75 1616 -75 
Q 969 -75 630 194 
Q 291 463 197 991 
z
" transform="scale(0.015625)"/>
       <path id="ArialMT-25" d="M 372 3481 
Q 372 3972 619 4315 
Q 866 4659 1334 4659 
Q 1766 4659 2048 4351 
Q 2331 4044 2331 3447 
Q 2331 2866 2045 2552 
Q 1759 2238 1341 2238 
Q 925 2238 648 2547 
Q 372 2856 372 3481 
z
M 1350 4272 
Q 1141 4272 1002 4090 
Q 863 3909 863 3425 
Q 863 2984 1003 2804 
Q 1144 2625 1350 2625 
Q 1563 2625 1702 2806 
Q 1841 2988 1841 3469 
Q 1841 3913 1700 4092 
Q 1559 4272 1350 4272 
z
M 1353 -169 
L 3859 4659 
L 4316 4659 
L 1819 -169 
L 1353 -169 
z
M 3334 1075 
Q 3334 1569 3581 1911 
Q 3828 2253 4300 2253 
Q 4731 2253 5014 1945 
Q 5297 1638 5297 1041 
Q 5297 459 5011 145 
Q 4725 -169 4303 -169 
Q 3888 -169 3611 142 
Q 3334 453 3334 1075 
z
M 4316 1866 
Q 4103 1866 3964 1684 
Q 3825 1503 3825 1019 
Q 3825 581 3965 400 
Q 4106 219 4313 219 
Q 4528 219 4667 400 
Q 4806 581 4806 1063 
Q 4806 1506 4665 1686 
Q 4525 1866 4316 1866 
z
" transform="scale(0.015625)"/>
       <path id="ArialMT-6f" d="M 213 1659 
Q 213 2581 725 3025 
Q 1153 3394 1769 3394 
Q 2453 3394 2887 2945 
Q 3322 2497 3322 1706 
Q 3322 1066 3130 698 
Q 2938 331 2570 128 
Q 2203 -75 1769 -75 
Q 1072 -75 642 372 
Q 213 819 213 1659 
z
M 791 1659 
Q 791 1022 1069 705 
Q 1347 388 1769 388 
Q 2188 388 2466 706 
Q 2744 1025 2744 1678 
Q 2744 2294 2464 2611 
Q 2184 2928 1769 2928 
Q 1347 2928 1069 2612 
Q 791 2297 791 1659 
z
" transform="scale(0.015625)"/>
       <path id="ArialMT-66" d="M 556 0 
L 556 2881 
L 59 2881 
L 59 3319 
L 556 3319 
L 556 3672 
Q 556 4006 616 4169 
Q 697 4388 901 4523 
Q 1106 4659 1475 4659 
Q 1713 4659 2000 4603 
L 1916 4113 
Q 1741 4144 1584 4144 
Q 1328 4144 1222 4034 
Q 1116 3925 1116 3625 
L 1116 3319 
L 1763 3319 
L 1763 2881 
L 1116 2881 
L 1116 0 
L 556 0 
z
" transform="scale(0.015625)"/>
       <path id="ArialMT-47" d="M 2638 1797 
L 2638 2334 
L 4578 2338 
L 4578 638 
Q 4131 281 3656 101 
Q 3181 -78 2681 -78 
Q 2006 -78 1454 211 
Q 903 500 622 1047 
Q 341 1594 341 2269 
Q 341 2938 620 3517 
Q 900 4097 1425 4378 
Q 1950 4659 2634 4659 
Q 3131 4659 3532 4498 
Q 3934 4338 4162 4050 
Q 4391 3763 4509 3300 
L 3963 3150 
Q 3859 3500 3706 3700 
Q 3553 3900 3268 4020 
Q 2984 4141 2638 4141 
Q 2222 4141 1919 4014 
Q 1616 3888 1430 3681 
Q 1244 3475 1141 3228 
Q 966 2803 966 2306 
Q 966 1694 1177 1281 
Q 1388 869 1791 669 
Q 2194 469 2647 469 
Q 3041 469 3416 620 
Q 3791 772 3984 944 
L 3984 1797 
L 2638 1797 
z
" transform="scale(0.015625)"/>
       <path id="ArialMT-44" d="M 494 0 
L 494 4581 
L 2072 4581 
Q 2606 4581 2888 4516 
Q 3281 4425 3559 4188 
Q 3922 3881 4101 3404 
Q 4281 2928 4281 2316 
Q 4281 1794 4159 1391 
Q 4038 988 3847 723 
Q 3656 459 3429 307 
Q 3203 156 2883 78 
Q 2563 0 2147 0 
L 494 0 
z
M 1100 541 
L 2078 541 
Q 2531 541 2789 625 
Q 3047 709 3200 863 
Q 3416 1078 3536 1442 
Q 3656 1806 3656 2325 
Q 3656 3044 3420 3430 
Q 3184 3816 2847 3947 
Q 2603 4041 2063 4041 
L 1100 4041 
L 1100 541 
z
" transform="scale(0.015625)"/>
       <path id="ArialMT-50" d="M 494 0 
L 494 4581 
L 2222 4581 
Q 2678 4581 2919 4538 
Q 3256 4481 3484 4323 
Q 3713 4166 3852 3881 
Q 3991 3597 3991 3256 
Q 3991 2672 3619 2267 
Q 3247 1863 2275 1863 
L 1100 1863 
L 1100 0 
L 494 0 
z
M 1100 2403 
L 2284 2403 
Q 2872 2403 3119 2622 
Q 3366 2841 3366 3238 
Q 3366 3525 3220 3729 
Q 3075 3934 2838 4000 
Q 2684 4041 2272 4041 
L 1100 4041 
L 1100 2403 
z
" transform="scale(0.015625)"/>
      </defs>
      <use xlink:href="#ArialMT-41"/>
      <use xlink:href="#ArialMT-67" x="66.699219"/>
      <use xlink:href="#ArialMT-72" x="122.314453"/>
      <use xlink:href="#ArialMT-69" x="155.615234"/>
      <use xlink:href="#ArialMT-63" x="177.832031"/>
      <use xlink:href="#ArialMT-75" x="227.832031"/>
      <use xlink:href="#ArialMT-6c" x="283.447266"/>
      <use xlink:href="#ArialMT-74" x="305.664062"/>
      <use xlink:href="#ArialMT-75" x="333.447266"/>
      <use xlink:href="#ArialMT-72" x="389.0625"/>
      <use xlink:href="#ArialMT-65" x="422.363281"/>
      <use xlink:href="#ArialMT-20" x="477.978516"/>
      <use xlink:href="#ArialMT-61" x="505.761719"/>
      <use xlink:href="#ArialMT-73" x="561.376953"/>
      <use xlink:href="#ArialMT-20" x="611.376953"/>
      <use xlink:href="#ArialMT-25" x="639.160156"/>
      <use xlink:href="#ArialMT-20" x="728.076172"/>
      <use xlink:href="#ArialMT-6f" x="755.859375"/>
      <use xlink:href="#ArialMT-66" x="811.474609"/>
      <use xlink:href="#ArialMT-20" x="839.257812"/>
      <use xlink:href="#ArialMT-47" x="867.041016"/>
      <use xlink:href="#ArialMT-44" x="944.824219"/>
      <use xlink:href="#ArialMT-50" x="1017.041016"/>
     </g>
    </g>
   </g>
   <g id="matplotlib.axis_2">
    <g id="ytick_1">
     <g id="line2d_7">
      <path d="M 65.223 191.243117 
L 775.152 191.243117 
" clip-path="url(#p01a558b76b)" style="fill: none; stroke: #cccccc; stroke-linecap: round"/>
     </g>
     <g id="text_8">
      <!-- 0.8 -->
      <g style="fill: #262626" transform="translate(35.846 196.360953)scale(0.143 -0.143)">
       <defs>
        <path id="ArialMT-2e" d="M 581 0 
L 581 641 
L 1222 641 
L 1222 0 
L 581 0 
z
" transform="scale(0.015625)"/>
        <path id="ArialMT-38" d="M 1131 2484 
Q 781 2613 612 2850 
Q 444 3088 444 3419 
Q 444 3919 803 4259 
Q 1163 4600 1759 4600 
Q 2359 4600 2725 4251 
Q 3091 3903 3091 3403 
Q 3091 3084 2923 2848 
Q 2756 2613 2416 2484 
Q 2838 2347 3058 2040 
Q 3278 1734 3278 1309 
Q 3278 722 2862 322 
Q 2447 -78 1769 -78 
Q 1091 -78 675 323 
Q 259 725 259 1325 
Q 259 1772 486 2073 
Q 713 2375 1131 2484 
z
M 1019 3438 
Q 1019 3113 1228 2906 
Q 1438 2700 1772 2700 
Q 2097 2700 2305 2904 
Q 2513 3109 2513 3406 
Q 2513 3716 2298 3927 
Q 2084 4138 1766 4138 
Q 1444 4138 1231 3931 
Q 1019 3725 1019 3438 
z
M 838 1322 
Q 838 1081 952 856 
Q 1066 631 1291 507 
Q 1516 384 1775 384 
Q 2178 384 2440 643 
Q 2703 903 2703 1303 
Q 2703 1709 2433 1975 
Q 2163 2241 1756 2241 
Q 1359 2241 1098 1978 
Q 838 1716 838 1322 
z
" transform="scale(0.015625)"/>
       </defs>
       <use xlink:href="#ArialMT-30"/>
       <use xlink:href="#ArialMT-2e" x="55.615234"/>
       <use xlink:href="#ArialMT-38" x="83.398438"/>
      </g>
     </g>
    </g>
    <g id="ytick_2">
     <g id="line2d_8">
      <path d="M 65.223 139.215042 
L 775.152 139.215042 
" clip-path="url(#p01a558b76b)" style="fill: none; stroke: #cccccc; stroke-linecap: round"/>
     </g>
     <g id="text_9">
      <!-- 1.0 -->
      <g style="fill: #262626" transform="translate(35.846 144.332878)scale(0.143 -0.143)">
       <use xlink:href="#ArialMT-31"/>
       <use xlink:href="#ArialMT-2e" x="55.615234"/>
       <use xlink:href="#ArialMT-30" x="83.398438"/>
      </g>
     </g>
    </g>
    <g id="ytick_3">
     <g id="line2d_9">
      <path d="M 65.223 87.186966 
L 775.152 87.186966 
" clip-path="url(#p01a558b76b)" style="fill: none; stroke: #cccccc; stroke-linecap: round"/>
     </g>
     <g id="text_10">
      <!-- 1.2 -->
      <g style="fill: #262626" transform="translate(35.846 92.304802)scale(0.143 -0.143)">
       <use xlink:href="#ArialMT-31"/>
       <use xlink:href="#ArialMT-2e" x="55.615234"/>
       <use xlink:href="#ArialMT-32" x="83.398438"/>
      </g>
     </g>
    </g>
    <g id="ytick_4">
     <g id="line2d_10">
      <path d="M 65.223 35.15889 
L 775.152 35.15889 
" clip-path="url(#p01a558b76b)" style="fill: none; stroke: #cccccc; stroke-linecap: round"/>
     </g>
     <g id="text_11">
      <!-- 1.4 -->
      <g style="fill: #262626" transform="translate(35.846 40.276726)scale(0.143 -0.143)">
       <use xlink:href="#ArialMT-31"/>
       <use xlink:href="#ArialMT-2e" x="55.615234"/>
       <use xlink:href="#ArialMT-34" x="83.398438"/>
      </g>
     </g>
    </g>
    <g id="text_12">
     <!-- TMD (UDHR) -->
     <g style="fill: #262626" transform="translate(28.562687 178.537813)rotate(-90)scale(0.156 -0.156)">
      <defs>
       <path id="ArialMT-54" d="M 1659 0 
L 1659 4041 
L 150 4041 
L 150 4581 
L 3781 4581 
L 3781 4041 
L 2266 4041 
L 2266 0 
L 1659 0 
z
" transform="scale(0.015625)"/>
       <path id="ArialMT-4d" d="M 475 0 
L 475 4581 
L 1388 4581 
L 2472 1338 
Q 2622 884 2691 659 
Q 2769 909 2934 1394 
L 4031 4581 
L 4847 4581 
L 4847 0 
L 4263 0 
L 4263 3834 
L 2931 0 
L 2384 0 
L 1059 3900 
L 1059 0 
L 475 0 
z
" transform="scale(0.015625)"/>
       <path id="ArialMT-28" d="M 1497 -1347 
Q 1031 -759 709 28 
Q 388 816 388 1659 
Q 388 2403 628 3084 
Q 909 3875 1497 4659 
L 1900 4659 
Q 1522 4009 1400 3731 
Q 1209 3300 1100 2831 
Q 966 2247 966 1656 
Q 966 153 1900 -1347 
L 1497 -1347 
z
" transform="scale(0.015625)"/>
       <path id="ArialMT-55" d="M 3500 4581 
L 4106 4581 
L 4106 1934 
Q 4106 1244 3950 837 
Q 3794 431 3386 176 
Q 2978 -78 2316 -78 
Q 1672 -78 1262 144 
Q 853 366 678 786 
Q 503 1206 503 1934 
L 503 4581 
L 1109 4581 
L 1109 1938 
Q 1109 1341 1220 1058 
Q 1331 775 1601 622 
Q 1872 469 2263 469 
Q 2931 469 3215 772 
Q 3500 1075 3500 1938 
L 3500 4581 
z
" transform="scale(0.015625)"/>
       <path id="ArialMT-48" d="M 513 0 
L 513 4581 
L 1119 4581 
L 1119 2700 
L 3500 2700 
L 3500 4581 
L 4106 4581 
L 4106 0 
L 3500 0 
L 3500 2159 
L 1119 2159 
L 1119 0 
L 513 0 
z
" transform="scale(0.015625)"/>
       <path id="ArialMT-52" d="M 503 0 
L 503 4581 
L 2534 4581 
Q 3147 4581 3465 4457 
Q 3784 4334 3975 4021 
Q 4166 3709 4166 3331 
Q 4166 2844 3850 2509 
Q 3534 2175 2875 2084 
Q 3116 1969 3241 1856 
Q 3506 1613 3744 1247 
L 4541 0 
L 3778 0 
L 3172 953 
Q 2906 1366 2734 1584 
Q 2563 1803 2427 1890 
Q 2291 1978 2150 2013 
Q 2047 2034 1813 2034 
L 1109 2034 
L 1109 0 
L 503 0 
z
M 1109 2559 
L 2413 2559 
Q 2828 2559 3062 2645 
Q 3297 2731 3419 2920 
Q 3541 3109 3541 3331 
Q 3541 3656 3305 3865 
Q 3069 4075 2559 4075 
L 1109 4075 
L 1109 2559 
z
" transform="scale(0.015625)"/>
       <path id="ArialMT-29" d="M 791 -1347 
L 388 -1347 
Q 1322 153 1322 1656 
Q 1322 2244 1188 2822 
Q 1081 3291 891 3722 
Q 769 4003 388 4659 
L 791 4659 
Q 1378 3875 1659 3084 
Q 1900 2403 1900 1659 
Q 1900 816 1576 28 
Q 1253 -759 791 -1347 
z
" transform="scale(0.015625)"/>
      </defs>
      <use xlink:href="#ArialMT-54"/>
      <use xlink:href="#ArialMT-4d" x="61.083984"/>
      <use xlink:href="#ArialMT-44" x="144.384766"/>
      <use xlink:href="#ArialMT-20" x="216.601562"/>
      <use xlink:href="#ArialMT-28" x="244.384766"/>
      <use xlink:href="#ArialMT-55" x="277.685547"/>
      <use xlink:href="#ArialMT-44" x="349.902344"/>
      <use xlink:href="#ArialMT-48" x="422.119141"/>
      <use xlink:href="#ArialMT-52" x="494.335938"/>
      <use xlink:href="#ArialMT-29" x="566.552734"/>
     </g>
    </g>
   </g>
   <g id="PathCollection_1">
    <defs>
     <path id="m807a77e5d0" d="M 0 3 
C 0.795609 3 1.55874 2.683901 2.12132 2.12132 
C 2.683901 1.55874 3 0.795609 3 0 
C 3 -0.795609 2.683901 -1.55874 2.12132 -2.12132 
C 1.55874 -2.683901 0.795609 -3 0 -3 
C -0.795609 -3 -1.55874 -2.683901 -2.12132 -2.12132 
C -2.683901 -1.55874 -3 -0.795609 -3 0 
C -3 0.795609 -2.683901 1.55874 -2.12132 2.12132 
C -1.55874 2.683901 -0.795609 3 0 3 
z
" style="stroke: #4c72b0; stroke-opacity: 0.8"/>
    </defs>
    <g clip-path="url(#p01a558b76b)">
     <use xlink:href="#m807a77e5d0" x="168.467241" y="152.596096" style="fill: #4c72b0; fill-opacity: 0.8; stroke: #4c72b0; stroke-opacity: 0.8"/>
     <use xlink:href="#m807a77e5d0" x="97.4925" y="189.549541" style="fill: #4c72b0; fill-opacity: 0.8; stroke: #4c72b0; stroke-opacity: 0.8"/>
     <use xlink:href="#m807a77e5d0" x="742.8825" y="43.728295" style="fill: #4c72b0; fill-opacity: 0.8; stroke: #4c72b0; stroke-opacity: 0.8"/>
     <use xlink:href="#m807a77e5d0" x="265.150274" y="167.349678" style="fill: #4c72b0; fill-opacity: 0.8; stroke: #4c72b0; stroke-opacity: 0.8"/>
     <use xlink:href="#m807a77e5d0" x="553.906313" y="128.686471" style="fill: #4c72b0; fill-opacity: 0.8; stroke: #4c72b0; stroke-opacity: 0.8"/>
     <use xlink:href="#m807a77e5d0" x="354.157607" y="151.788989" style="fill: #4c72b0; fill-opacity: 0.8; stroke: #4c72b0; stroke-opacity: 0.8"/>
    </g>
   </g>
   <g id="PolyCollection_1">
    <defs>
     <path id="me3b35d8e78" d="M 97.4925 -124.065324 
L 97.4925 -68.228295 
L 104.011591 -69.880442 
L 110.530682 -71.532589 
L 117.049773 -73.214015 
L 123.568864 -74.910142 
L 130.087955 -76.606269 
L 136.607045 -78.302396 
L 143.126136 -79.998523 
L 149.645227 -81.69465 
L 156.164318 -83.390777 
L 162.683409 -84.997861 
L 169.2025 -86.494992 
L 175.721591 -87.990822 
L 182.240682 -89.484008 
L 188.759773 -90.977194 
L 195.278864 -92.47038 
L 201.797955 -93.963566 
L 208.317045 -95.465698 
L 214.836136 -97.204899 
L 221.355227 -98.944099 
L 227.874318 -100.6833 
L 234.393409 -102.4225 
L 240.9125 -104.161701 
L 247.431591 -105.900901 
L 253.950682 -107.640102 
L 260.469773 -109.379302 
L 266.988864 -111.100193 
L 273.507955 -112.747238 
L 280.027045 -114.395998 
L 286.546136 -116.045344 
L 293.065227 -117.529775 
L 299.584318 -118.963059 
L 306.103409 -120.396342 
L 312.6225 -121.829625 
L 319.141591 -123.262908 
L 325.660682 -124.696192 
L 332.179773 -125.805325 
L 338.698864 -126.391345 
L 345.217955 -127.786875 
L 351.737045 -129.358564 
L 358.256136 -129.866617 
L 364.775227 -131.293216 
L 371.294318 -132.786402 
L 377.813409 -134.268185 
L 384.3325 -135.389032 
L 390.851591 -136.357459 
L 397.370682 -137.637441 
L 403.889773 -138.74059 
L 410.408864 -139.251707 
L 416.927955 -140.664001 
L 423.447045 -141.601976 
L 429.966136 -142.458712 
L 436.485227 -143.315448 
L 443.004318 -143.942058 
L 449.523409 -144.530532 
L 456.0425 -145.133016 
L 462.561591 -145.728457 
L 469.080682 -146.316521 
L 475.599773 -146.875556 
L 482.118864 -147.320644 
L 488.637955 -147.765731 
L 495.157045 -148.210819 
L 501.676136 -148.655906 
L 508.195227 -149.120132 
L 514.714318 -149.720615 
L 521.233409 -150.195303 
L 527.7525 -150.544508 
L 534.271591 -151.034215 
L 540.790682 -151.672253 
L 547.309773 -152.306698 
L 553.828864 -152.919464 
L 560.347955 -153.29661 
L 566.867045 -153.673756 
L 573.386136 -154.050565 
L 579.905227 -154.426688 
L 586.424318 -154.802812 
L 592.943409 -155.178935 
L 599.4625 -155.555059 
L 605.981591 -155.932648 
L 612.500682 -156.311492 
L 619.019773 -156.690337 
L 625.538864 -157.112569 
L 632.057955 -157.557656 
L 638.577045 -158.002744 
L 645.096136 -158.447831 
L 651.615227 -158.892919 
L 658.134318 -159.338006 
L 664.653409 -159.783094 
L 671.1725 -160.228181 
L 677.691591 -160.673269 
L 684.210682 -161.118356 
L 690.729773 -161.563444 
L 697.248864 -162.008531 
L 703.767955 -162.453619 
L 710.287045 -162.898706 
L 716.806136 -163.343794 
L 723.325227 -163.788881 
L 729.844318 -164.233969 
L 736.363409 -164.679056 
L 742.8825 -165.124144 
L 742.8825 -243.929536 
L 742.8825 -243.929536 
L 736.363409 -241.971598 
L 729.844318 -240.37192 
L 723.325227 -238.849259 
L 716.806136 -237.358985 
L 710.287045 -235.921557 
L 703.767955 -234.484129 
L 697.248864 -233.046701 
L 690.729773 -231.691442 
L 684.210682 -230.394186 
L 677.691591 -229.075208 
L 671.1725 -227.642379 
L 664.653409 -226.20955 
L 658.134318 -224.776722 
L 651.615227 -223.343893 
L 645.096136 -221.911064 
L 638.577045 -220.478236 
L 632.057955 -219.117754 
L 625.538864 -217.758751 
L 619.019773 -216.285809 
L 612.500682 -214.812867 
L 605.981591 -213.339925 
L 599.4625 -211.900043 
L 592.943409 -210.512783 
L 586.424318 -209.125523 
L 579.905227 -207.738263 
L 573.386136 -206.351003 
L 566.867045 -204.963743 
L 560.347955 -203.57588 
L 553.828864 -202.185637 
L 547.309773 -200.795393 
L 540.790682 -199.40515 
L 534.271591 -198.014907 
L 527.7525 -196.624663 
L 521.233409 -195.23442 
L 514.714318 -193.844177 
L 508.195227 -192.453933 
L 501.676136 -191.06369 
L 495.157045 -189.700781 
L 488.637955 -188.351423 
L 482.118864 -187.001322 
L 475.599773 -185.65122 
L 469.080682 -184.416987 
L 462.561591 -183.203229 
L 456.0425 -181.98947 
L 449.523409 -180.704152 
L 443.004318 -179.271416 
L 436.485227 -177.83868 
L 429.966136 -176.686305 
L 423.447045 -175.550623 
L 416.927955 -174.196443 
L 410.408864 -172.820851 
L 403.889773 -171.430806 
L 397.370682 -170.019488 
L 390.851591 -168.608449 
L 384.3325 -167.199892 
L 377.813409 -165.789467 
L 371.294318 -164.379042 
L 364.775227 -162.968617 
L 358.256136 -161.558192 
L 351.737045 -160.147767 
L 345.217955 -158.737342 
L 338.698864 -157.332625 
L 332.179773 -155.983952 
L 325.660682 -154.635279 
L 319.141591 -153.286606 
L 312.6225 -151.937933 
L 306.103409 -150.589259 
L 299.584318 -149.258954 
L 293.065227 -147.967373 
L 286.546136 -146.675793 
L 280.027045 -145.309015 
L 273.507955 -144.127783 
L 266.988864 -143.099996 
L 260.469773 -142.072209 
L 253.950682 -141.044422 
L 247.431591 -140.016635 
L 240.9125 -138.988848 
L 234.393409 -137.925286 
L 227.874318 -136.933273 
L 221.355227 -135.905486 
L 214.836136 -134.877699 
L 208.317045 -134.185918 
L 201.797955 -133.213698 
L 195.278864 -132.865706 
L 188.759773 -132.453416 
L 182.240682 -131.885058 
L 175.721591 -131.045562 
L 169.2025 -130.66786 
L 162.683409 -130.290714 
L 156.164318 -128.99831 
L 149.645227 -127.856668 
L 143.126136 -126.986582 
L 136.607045 -126.534619 
L 130.087955 -126.128775 
L 123.568864 -125.72293 
L 117.049773 -125.317085 
L 110.530682 -124.756362 
L 104.011591 -124.351081 
L 97.4925 -124.065324 
z
" style="stroke: #ffffff; stroke-opacity: 0.15"/>
    </defs>
    <g clip-path="url(#p01a558b76b)">
     <use xlink:href="#me3b35d8e78" x="0" y="288" style="fill: #4c72b0; fill-opacity: 0.15; stroke: #ffffff; stroke-opacity: 0.15"/>
    </g>
   </g>
   <g id="line2d_11">
    <path d="M 97.4925 189.839096 
L 104.011591 188.59277 
L 110.530682 187.346443 
L 117.049773 186.100116 
L 123.568864 184.85379 
L 130.087955 183.607463 
L 136.607045 182.361137 
L 143.126136 181.11481 
L 149.645227 179.868484 
L 156.164318 178.622157 
L 162.683409 177.375831 
L 169.2025 176.129504 
L 175.721591 174.883177 
L 182.240682 173.636851 
L 188.759773 172.390524 
L 195.278864 171.144198 
L 201.797955 169.897871 
L 208.317045 168.651545 
L 214.836136 167.405218 
L 221.355227 166.158892 
L 227.874318 164.912565 
L 234.393409 163.666239 
L 240.9125 162.419912 
L 247.431591 161.173585 
L 253.950682 159.927259 
L 260.469773 158.680932 
L 266.988864 157.434606 
L 273.507955 156.188279 
L 280.027045 154.941953 
L 286.546136 153.695626 
L 293.065227 152.4493 
L 299.584318 151.202973 
L 306.103409 149.956647 
L 312.6225 148.71032 
L 319.141591 147.463993 
L 325.660682 146.217667 
L 332.179773 144.97134 
L 338.698864 143.725014 
L 345.217955 142.478687 
L 351.737045 141.232361 
L 358.256136 139.986034 
L 364.775227 138.739708 
L 371.294318 137.493381 
L 377.813409 136.247054 
L 384.3325 135.000728 
L 390.851591 133.754401 
L 397.370682 132.508075 
L 403.889773 131.261748 
L 410.408864 130.015422 
L 416.927955 128.769095 
L 423.447045 127.522769 
L 429.966136 126.276442 
L 436.485227 125.030116 
L 443.004318 123.783789 
L 449.523409 122.537462 
L 456.0425 121.291136 
L 462.561591 120.044809 
L 469.080682 118.798483 
L 475.599773 117.552156 
L 482.118864 116.30583 
L 488.637955 115.059503 
L 495.157045 113.813177 
L 501.676136 112.56685 
L 508.195227 111.320523 
L 514.714318 110.074197 
L 521.233409 108.82787 
L 527.7525 107.581544 
L 534.271591 106.335217 
L 540.790682 105.088891 
L 547.309773 103.842564 
L 553.828864 102.596238 
L 560.347955 101.349911 
L 566.867045 100.103585 
L 573.386136 98.857258 
L 579.905227 97.610931 
L 586.424318 96.364605 
L 592.943409 95.118278 
L 599.4625 93.871952 
L 605.981591 92.625625 
L 612.500682 91.379299 
L 619.019773 90.132972 
L 625.538864 88.886646 
L 632.057955 87.640319 
L 638.577045 86.393993 
L 645.096136 85.147666 
L 651.615227 83.901339 
L 658.134318 82.655013 
L 664.653409 81.408686 
L 671.1725 80.16236 
L 677.691591 78.916033 
L 684.210682 77.669707 
L 690.729773 76.42338 
L 697.248864 75.177054 
L 703.767955 73.930727 
L 710.287045 72.6844 
L 716.806136 71.438074 
L 723.325227 70.191747 
L 729.844318 68.945421 
L 736.363409 67.699094 
L 742.8825 66.452768 
" clip-path="url(#p01a558b76b)" style="fill: none; stroke: #4c72b0; stroke-width: 2.25; stroke-linecap: round"/>
   </g>
   <g id="patch_3">
    <path d="M 65.223 228.573875 
L 65.223 34.926125 
" style="fill: none; stroke: #cccccc; stroke-width: 1.25; stroke-linejoin: miter; stroke-linecap: square"/>
   </g>
   <g id="patch_4">
    <path d="M 775.152 228.573875 
L 775.152 34.926125 
" style="fill: none; stroke: #cccccc; stroke-width: 1.25; stroke-linejoin: miter; stroke-linecap: square"/>
   </g>
   <g id="patch_5">
    <path d="M 65.223 228.573875 
L 775.152 228.573875 
" style="fill: none; stroke: #cccccc; stroke-width: 1.25; stroke-linejoin: miter; stroke-linecap: square"/>
   </g>
   <g id="patch_6">
    <path d="M 65.223 34.926125 
L 775.152 34.926125 
" style="fill: none; stroke: #cccccc; stroke-width: 1.25; stroke-linejoin: miter; stroke-linecap: square"/>
   </g>
   <g id="text_13">
    <g id="text_14">
     <g id="text_15">
      <g id="text_16">
       <!-- el -->
       <g style="fill: #262626" transform="translate(168.7023 152.596096)scale(0.156 -0.156)">
        <use xlink:href="#ArialMT-65"/>
        <use xlink:href="#ArialMT-6c" x="55.615234"/>
       </g>
      </g>
      <g id="text_17">
       <!-- en -->
       <g style="fill: #262626" transform="translate(97.727559 189.549541)scale(0.156 -0.156)">
        <defs>
         <path id="ArialMT-6e" d="M 422 0 
L 422 3319 
L 928 3319 
L 928 2847 
Q 1294 3394 1984 3394 
Q 2284 3394 2536 3286 
Q 2788 3178 2913 3003 
Q 3038 2828 3088 2588 
Q 3119 2431 3119 2041 
L 3119 0 
L 2556 0 
L 2556 2019 
Q 2556 2363 2490 2533 
Q 2425 2703 2258 2804 
Q 2091 2906 1866 2906 
Q 1506 2906 1245 2678 
Q 984 2450 984 1813 
L 984 0 
L 422 0 
z
" transform="scale(0.015625)"/>
        </defs>
        <use xlink:href="#ArialMT-65"/>
        <use xlink:href="#ArialMT-6e" x="55.615234"/>
       </g>
      </g>
      <g id="text_18">
       <g id="text_19">
        <g id="text_20">
         <g id="text_21">
          <g id="text_22">
           <g id="text_23">
            <!-- kk -->
            <g style="fill: #262626" transform="translate(743.117559 43.728295)scale(0.156 -0.156)">
             <defs>
              <path id="ArialMT-6b" d="M 425 0 
L 425 4581 
L 988 4581 
L 988 1969 
L 2319 3319 
L 3047 3319 
L 1778 2088 
L 3175 0 
L 2481 0 
L 1384 1697 
L 988 1316 
L 988 0 
L 425 0 
z
" transform="scale(0.015625)"/>
             </defs>
             <use xlink:href="#ArialMT-6b"/>
             <use xlink:href="#ArialMT-6b" x="50"/>
            </g>
           </g>
           <g id="text_24">
            <g id="text_25">
             <!-- ru -->
             <g style="fill: #262626" transform="translate(265.385333 167.349678)scale(0.156 -0.156)">
              <use xlink:href="#ArialMT-72"/>
              <use xlink:href="#ArialMT-75" x="33.300781"/>
             </g>
            </g>
            <g id="text_26">
             <!-- vi -->
             <g style="fill: #262626" transform="translate(554.141372 128.686471)scale(0.156 -0.156)">
              <defs>
               <path id="ArialMT-76" d="M 1344 0 
L 81 3319 
L 675 3319 
L 1388 1331 
Q 1503 1009 1600 663 
Q 1675 925 1809 1294 
L 2547 3319 
L 3125 3319 
L 1869 0 
L 1344 0 
z
" transform="scale(0.015625)"/>
              </defs>
              <use xlink:href="#ArialMT-76"/>
              <use xlink:href="#ArialMT-69" x="50"/>
             </g>
            </g>
            <g id="text_27">
             <!-- zh -->
             <g style="fill: #262626" transform="translate(354.392666 151.788989)scale(0.156 -0.156)">
              <defs>
               <path id="ArialMT-7a" d="M 125 0 
L 125 456 
L 2238 2881 
Q 1878 2863 1603 2863 
L 250 2863 
L 250 3319 
L 2963 3319 
L 2963 2947 
L 1166 841 
L 819 456 
Q 1197 484 1528 484 
L 3063 484 
L 3063 0 
L 125 0 
z
" transform="scale(0.015625)"/>
               <path id="ArialMT-68" d="M 422 0 
L 422 4581 
L 984 4581 
L 984 2938 
Q 1378 3394 1978 3394 
Q 2347 3394 2619 3248 
Q 2891 3103 3008 2847 
Q 3125 2591 3125 2103 
L 3125 0 
L 2563 0 
L 2563 2103 
Q 2563 2525 2380 2717 
Q 2197 2909 1863 2909 
Q 1613 2909 1392 2779 
Q 1172 2650 1078 2428 
Q 984 2206 984 1816 
L 984 0 
L 422 0 
z
" transform="scale(0.015625)"/>
              </defs>
              <use xlink:href="#ArialMT-7a"/>
              <use xlink:href="#ArialMT-68" x="50"/>
             </g>
            </g>
            <g id="text_28">
             <!-- Translations of Universal Declaration of Human Rights -->
             <g style="fill: #262626" transform="translate(232.776656 28.926125)scale(0.156 -0.156)">
              <defs>
               <path id="ArialMT-6d" d="M 422 0 
L 422 3319 
L 925 3319 
L 925 2853 
Q 1081 3097 1340 3245 
Q 1600 3394 1931 3394 
Q 2300 3394 2536 3241 
Q 2772 3088 2869 2813 
Q 3263 3394 3894 3394 
Q 4388 3394 4653 3120 
Q 4919 2847 4919 2278 
L 4919 0 
L 4359 0 
L 4359 2091 
Q 4359 2428 4304 2576 
Q 4250 2725 4106 2815 
Q 3963 2906 3769 2906 
Q 3419 2906 3187 2673 
Q 2956 2441 2956 1928 
L 2956 0 
L 2394 0 
L 2394 2156 
Q 2394 2531 2256 2718 
Q 2119 2906 1806 2906 
Q 1569 2906 1367 2781 
Q 1166 2656 1075 2415 
Q 984 2175 984 1722 
L 984 0 
L 422 0 
z
" transform="scale(0.015625)"/>
              </defs>
              <use xlink:href="#ArialMT-54"/>
              <use xlink:href="#ArialMT-72" x="57.333984"/>
              <use xlink:href="#ArialMT-61" x="90.634766"/>
              <use xlink:href="#ArialMT-6e" x="146.25"/>
              <use xlink:href="#ArialMT-73" x="201.865234"/>
              <use xlink:href="#ArialMT-6c" x="251.865234"/>
              <use xlink:href="#ArialMT-61" x="274.082031"/>
              <use xlink:href="#ArialMT-74" x="329.697266"/>
              <use xlink:href="#ArialMT-69" x="357.480469"/>
              <use xlink:href="#ArialMT-6f" x="379.697266"/>
              <use xlink:href="#ArialMT-6e" x="435.3125"/>
              <use xlink:href="#ArialMT-73" x="490.927734"/>
              <use xlink:href="#ArialMT-20" x="540.927734"/>
              <use xlink:href="#ArialMT-6f" x="568.710938"/>
              <use xlink:href="#ArialMT-66" x="624.326172"/>
              <use xlink:href="#ArialMT-20" x="652.109375"/>
              <use xlink:href="#ArialMT-55" x="679.892578"/>
              <use xlink:href="#ArialMT-6e" x="752.109375"/>
              <use xlink:href="#ArialMT-69" x="807.724609"/>
              <use xlink:href="#ArialMT-76" x="829.941406"/>
              <use xlink:href="#ArialMT-65" x="879.941406"/>
              <use xlink:href="#ArialMT-72" x="935.556641"/>
              <use xlink:href="#ArialMT-73" x="968.857422"/>
              <use xlink:href="#ArialMT-61" x="1018.857422"/>
              <use xlink:href="#ArialMT-6c" x="1074.472656"/>
              <use xlink:href="#ArialMT-20" x="1096.689453"/>
              <use xlink:href="#ArialMT-44" x="1124.472656"/>
              <use xlink:href="#ArialMT-65" x="1196.689453"/>
              <use xlink:href="#ArialMT-63" x="1252.304688"/>
              <use xlink:href="#ArialMT-6c" x="1302.304688"/>
              <use xlink:href="#ArialMT-61" x="1324.521484"/>
              <use xlink:href="#ArialMT-72" x="1380.136719"/>
              <use xlink:href="#ArialMT-61" x="1413.4375"/>
              <use xlink:href="#ArialMT-74" x="1469.052734"/>
              <use xlink:href="#ArialMT-69" x="1496.835938"/>
              <use xlink:href="#ArialMT-6f" x="1519.052734"/>
              <use xlink:href="#ArialMT-6e" x="1574.667969"/>
              <use xlink:href="#ArialMT-20" x="1630.283203"/>
              <use xlink:href="#ArialMT-6f" x="1658.066406"/>
              <use xlink:href="#ArialMT-66" x="1713.681641"/>
              <use xlink:href="#ArialMT-20" x="1741.464844"/>
              <use xlink:href="#ArialMT-48" x="1769.248047"/>
              <use xlink:href="#ArialMT-75" x="1841.464844"/>
              <use xlink:href="#ArialMT-6d" x="1897.080078"/>
              <use xlink:href="#ArialMT-61" x="1980.380859"/>
              <use xlink:href="#ArialMT-6e" x="2035.996094"/>
              <use xlink:href="#ArialMT-20" x="2091.611328"/>
              <use xlink:href="#ArialMT-52" x="2119.394531"/>
              <use xlink:href="#ArialMT-69" x="2191.611328"/>
              <use xlink:href="#ArialMT-67" x="2213.828125"/>
              <use xlink:href="#ArialMT-68" x="2269.443359"/>
              <use xlink:href="#ArialMT-74" x="2325.058594"/>
              <use xlink:href="#ArialMT-73" x="2352.841797"/>
             </g>
            </g>
           </g>
          </g>
          <defs>
           <clipPath id="p01a558b76b">
            <rect x="65.223" y="34.926125" width="709.929" height="193.64775"/>
           </clipPath>
          </defs>
         </g>
        </g>
       </g>
      </g>
     </g>
    </g>
   </g>
  </g>
 </g>
</svg>
